<svg width="135" height="38" viewBox="0 0 135 38" fill="none" xmlns="http://www.w3.org/2000/svg">
<g clip-path="url(#clip0_13_2)">
<path d="M29.4179 24.9863C29.3813 24.9523 29.3525 24.9109 29.3331 24.8648C29.3138 24.8187 29.3045 24.769 29.3058 24.719V12.9996C29.3015 12.9387 29.3091 12.8775 29.3283 12.8196C29.3476 12.7616 29.378 12.7081 29.4179 12.662C29.4574 12.6202 29.5053 12.5873 29.5585 12.5655C29.6116 12.5437 29.6687 12.5334 29.7261 12.5353H34.7271C36.1031 12.4523 37.4763 12.7388 38.7055 13.3654C39.1434 13.6086 39.5058 13.9685 39.753 14.4054C40.0002 14.8423 40.1225 15.3393 40.1064 15.8415C40.12 16.3893 39.947 16.9253 39.6161 17.361C39.1404 17.877 38.5567 18.2806 37.907 18.5428C37.9009 18.5534 37.8977 18.5656 37.8977 18.5779C37.8977 18.5903 37.9009 18.6024 37.907 18.6131C38.6404 18.8441 39.3048 19.2551 39.8402 19.809C40.2321 20.3189 40.4307 20.9522 40.4006 21.5957C40.4339 22.1044 40.329 22.6126 40.097 23.0661C39.8651 23.5195 39.5149 23.9012 39.0837 24.1703C37.8393 24.8109 36.4443 25.0979 35.0493 25.0004H29.7261C29.677 25.0218 29.6238 25.0317 29.5703 25.0292C29.5169 25.0268 29.4648 25.0121 29.4179 24.9863ZM35.0213 17.4595C35.363 17.4702 35.6968 17.3551 35.9599 17.1359C36.0757 17.0321 36.1671 16.9038 36.2277 16.7603C36.2882 16.6168 36.3164 16.4616 36.3101 16.3058C36.3128 16.139 36.2777 15.9737 36.2073 15.8225C36.1369 15.6714 36.0331 15.5383 35.9038 15.4335C35.6194 15.2021 35.261 15.0822 34.8952 15.0959H33.4944C33.3846 15.0822 33.2738 15.1125 33.1862 15.1803C33.1542 15.2135 33.1301 15.2535 33.1156 15.2973C33.101 15.3412 33.0964 15.3877 33.1021 15.4335V17.0937C33.0959 17.1925 33.1204 17.2908 33.1722 17.375C33.1996 17.4067 33.2345 17.4309 33.2736 17.4457C33.3127 17.4604 33.3549 17.4651 33.3963 17.4595H35.0213ZM35.0213 22.5102C35.4184 22.5263 35.8059 22.3847 36.0999 22.1162C36.2262 22.0005 36.3264 21.8591 36.3941 21.7014C36.4617 21.5437 36.4951 21.3734 36.4922 21.2018C36.4962 21.0395 36.4644 20.8784 36.399 20.73C36.3336 20.5816 36.2363 20.4496 36.1139 20.3436C35.8295 20.1122 35.4711 19.9922 35.1053 20.0059H33.5364C33.4266 19.9922 33.3159 20.0225 33.2282 20.0903C33.1967 20.1267 33.173 20.1692 33.1585 20.2152C33.144 20.2612 33.1392 20.3097 33.1441 20.3576V22.1303C33.1386 22.2335 33.1629 22.3361 33.2142 22.4258C33.2417 22.4574 33.2765 22.4816 33.3156 22.4964C33.3548 22.5111 33.3969 22.5159 33.4383 22.5102H35.0213Z" fill="black"/>
<path d="M41.6613 24.9863C41.5936 24.8978 41.559 24.7883 41.5632 24.6768V16.5309C41.5632 16.2777 41.6753 16.1511 41.8854 16.1511H44.505C44.5462 16.1486 44.5874 16.1548 44.626 16.1693C44.6646 16.1839 44.6998 16.2064 44.7291 16.2355C44.787 16.3012 44.8172 16.387 44.8132 16.4746V17.4313C44.8132 17.5298 44.8132 17.5861 44.9253 17.5861C44.9598 17.5809 44.9927 17.5681 45.0218 17.5486C45.0508 17.5292 45.0753 17.5035 45.0934 17.4735C45.3867 17.0397 45.7748 16.6788 46.228 16.4184C46.6129 16.1511 47.0637 15.9953 47.5308 15.9682C47.9511 15.9682 48.1612 16.0807 48.1612 16.3058V18.8804C48.1678 18.9255 48.1621 18.9714 48.1449 19.0135C48.1276 19.0556 48.0994 19.0923 48.0632 19.1196C48.0262 19.1382 47.9854 19.1478 47.9441 19.1478C47.9028 19.1478 47.862 19.1382 47.825 19.1196C47.3673 19.001 46.8968 18.9395 46.4242 18.9367C46.0572 18.9307 45.6999 19.0553 45.4156 19.2884C45.2857 19.3765 45.1778 19.4933 45.1001 19.6299C45.0224 19.7665 44.9769 19.9192 44.9673 20.0763V24.5783C44.9739 24.647 44.9661 24.7163 44.9444 24.7817C44.9227 24.8471 44.8875 24.9073 44.8412 24.9582C44.7146 25.0337 44.5678 25.0681 44.421 25.0567H42.0255C41.9632 25.0708 41.8987 25.0719 41.8361 25.0598C41.7734 25.0477 41.7139 25.0227 41.6613 24.9863Z" fill="black"/>
<path d="M51.3412 25.3239C50.6223 25.3641 49.917 25.1162 49.38 24.6346C49.1391 24.4088 48.9494 24.1337 48.8237 23.8278C48.698 23.522 48.6393 23.1925 48.6516 22.8619C48.6403 22.218 48.8646 21.5922 49.2819 21.1033C49.7669 20.5624 50.3854 20.1596 51.075 19.9356C51.9573 19.6507 52.8801 19.5129 53.8067 19.5276H53.9188C54.0869 19.5276 54.1709 19.4432 54.1709 19.2884V19.007C54.1895 18.8733 54.177 18.7371 54.1343 18.6091C54.0917 18.481 54.02 18.3647 53.9249 18.2693C53.8299 18.1738 53.714 18.1018 53.5866 18.0589C53.4591 18.016 53.3234 18.0035 53.1903 18.0222C52.9274 18.0229 52.6683 18.0856 52.4338 18.2051C52.1889 18.3496 51.9935 18.5655 51.8735 18.8241C51.8518 18.8855 51.8129 18.9392 51.7614 18.9789C51.7113 18.995 51.6575 18.995 51.6073 18.9789H51.4252L49.2119 18.5428C49.1828 18.5395 49.1547 18.5301 49.1294 18.5153C49.1041 18.5004 49.0822 18.4804 49.065 18.4566C49.0479 18.4328 49.0359 18.4056 49.0298 18.3768C49.0238 18.348 49.0237 18.3183 49.0298 18.2895C49.0155 18.1821 49.0155 18.0733 49.0298 17.9659C49.5061 16.6294 50.9069 15.9541 53.2323 15.9541C54.3244 15.861 55.4178 16.1171 56.3562 16.6857C56.6942 16.912 56.9701 17.22 57.1586 17.5814C57.3471 17.9427 57.4421 18.3459 57.4349 18.7538V24.6346C57.4493 24.7563 57.4248 24.8795 57.3648 24.9863C57.3245 25.0254 57.2757 25.0547 57.2222 25.0718C57.1688 25.0889 57.1121 25.0933 57.0567 25.0848H54.6332C54.5763 25.0883 54.5195 25.0772 54.468 25.0526C54.4165 25.028 54.3721 24.9907 54.339 24.9441C54.2717 24.8013 54.2246 24.6497 54.1989 24.4939V24.3813C54.1989 24.2688 54.1989 24.2125 54.0588 24.2125C53.9389 24.2286 53.8291 24.2888 53.7506 24.3813C53.0879 24.9787 52.2316 25.3137 51.3412 25.3239ZM54.1429 21.1033C54.1149 21.0771 54.0817 21.0573 54.0455 21.0451C54.0092 21.033 53.9708 21.0288 53.9328 21.0329C53.665 21.0443 53.4005 21.0965 53.1483 21.1877C52.8498 21.2807 52.5733 21.4339 52.3358 21.6379C52.2227 21.7231 52.1309 21.8335 52.0677 21.9605C52.0045 22.0875 51.9716 22.2275 51.9716 22.3695C51.9682 22.4784 51.989 22.5867 52.0327 22.6865C52.0763 22.7863 52.1416 22.8751 52.2237 22.9463C52.4299 23.0985 52.6828 23.1732 52.9382 23.1573C53.2751 23.1647 53.6033 23.0498 53.8627 22.8338C53.966 22.7668 54.0533 22.678 54.1187 22.5734C54.184 22.4689 54.2258 22.3513 54.2409 22.2288V21.3425C54.2267 21.2537 54.1879 21.1709 54.1289 21.1033H54.1429Z" fill="black"/>
<path d="M62.0297 14.913C62.0375 14.9808 62.0289 15.0495 62.0045 15.1132C61.9801 15.1769 61.9407 15.2337 61.8896 15.2788C61.7717 15.3752 61.6206 15.4207 61.4693 15.4054H59.1019C59.0413 15.4158 58.9791 15.4112 58.9207 15.392C58.8623 15.3728 58.8094 15.3396 58.7666 15.2953C58.7238 15.2509 58.6925 15.1968 58.6752 15.1375C58.658 15.0783 58.6554 15.0157 58.6676 14.9552V12.9574C58.6676 12.6901 58.7657 12.5635 58.9898 12.5635H61.7915C61.834 12.5607 61.8765 12.5682 61.9155 12.5853C61.9545 12.6025 61.9889 12.6288 62.0157 12.662C62.0461 12.6962 62.0692 12.7364 62.0837 12.7799C62.0981 12.8234 62.1036 12.8695 62.0997 12.9152L62.0297 14.913ZM62.0297 24.6064C62.0375 24.6763 62.0289 24.7471 62.0046 24.8131C61.9802 24.8791 61.9409 24.9384 61.8896 24.9863C61.7645 25.0656 61.6165 25.1003 61.4693 25.0848H59.1019C59.0444 25.1003 58.984 25.1008 58.9262 25.0863C58.8685 25.0718 58.8154 25.0427 58.7719 25.0019C58.7285 24.9611 58.6961 24.9098 58.6778 24.8529C58.6596 24.796 58.6561 24.7354 58.6676 24.6768V16.5309C58.6676 16.2777 58.7657 16.1511 58.9898 16.1511H61.7915C61.8327 16.1486 61.8739 16.1548 61.9125 16.1693C61.9511 16.1839 61.9863 16.2064 62.0157 16.2355C62.0736 16.3012 62.1037 16.387 62.0997 16.4746L62.0297 24.6064Z" fill="black"/>
<path d="M63.5006 25.0004C63.4285 24.9087 63.3935 24.7932 63.4025 24.6768V16.5309C63.3933 16.4297 63.4234 16.3289 63.4865 16.2495C63.5162 16.2161 63.5531 16.1898 63.5943 16.1727C63.6356 16.1557 63.6802 16.1483 63.7247 16.151H66.4283C66.6385 16.151 66.7365 16.2636 66.7365 16.4746V17.2344C66.7365 17.3328 66.7365 17.375 66.8206 17.375C66.8614 17.389 66.9058 17.389 66.9466 17.375C67.2989 16.9768 67.7216 16.6476 68.1934 16.4043C68.625 16.1729 69.1051 16.0475 69.5943 16.0385C69.9459 16.024 70.2966 16.0828 70.6245 16.2111C70.9524 16.3394 71.2503 16.5345 71.4994 16.7841C71.751 17.0496 71.9465 17.3634 72.0741 17.7068C72.2017 18.0501 72.2587 18.4158 72.2419 18.7819V24.6627C72.2488 24.7303 72.2404 24.7986 72.2173 24.8625C72.1942 24.9264 72.1569 24.9842 72.1084 25.0315C72.0599 25.0789 72.0013 25.1147 71.9371 25.1361C71.8729 25.1575 71.8046 25.164 71.7376 25.1551H69.2861C69.1808 25.1666 69.0752 25.1363 68.9919 25.0707C68.9248 24.9771 68.8949 24.8617 68.9078 24.7471V19.1618C68.9096 19.0497 68.8867 18.9385 68.8407 18.8364C68.7947 18.7342 68.7267 18.6436 68.6417 18.5709C68.4605 18.4224 68.2308 18.3471 67.9973 18.3599C67.7311 18.367 67.4724 18.4502 67.2516 18.5997C67.0308 18.7492 66.857 18.9588 66.7505 19.204V24.6064C66.7572 24.6751 66.7494 24.7444 66.7277 24.8098C66.7059 24.8753 66.6708 24.9354 66.6245 24.9863C66.4994 25.0656 66.3513 25.1003 66.2042 25.0848H63.8227C63.7091 25.092 63.5962 25.0624 63.5006 25.0004Z" fill="black"/>
<path d="M83.6728 15.2507C83.2308 15.0624 82.7511 14.9805 82.272 15.0115C81.8278 14.9827 81.3838 15.07 80.9832 15.2647C80.8652 15.3179 80.7637 15.4023 80.6897 15.5088C80.6157 15.6154 80.5719 15.7401 80.5629 15.8697C80.5629 16.2777 80.9131 16.5591 81.6416 16.7279L84.4433 17.4595C85.3443 17.6569 86.1533 18.1523 86.7407 18.8664C87.2622 19.4955 87.5539 20.2848 87.5672 21.1033C87.5743 21.9023 87.3236 22.6821 86.8527 23.3262C86.3671 23.959 85.7178 24.4456 84.9756 24.7331C84.0831 25.0822 83.1316 25.2542 82.1739 25.2396C81.0203 25.2572 79.8741 25.0519 78.7978 24.6346C77.937 24.3394 77.1947 23.7717 76.6826 23.0167C76.6373 22.939 76.6087 22.8528 76.5985 22.7634C76.6035 22.7015 76.6242 22.6419 76.6585 22.5902C76.6928 22.5385 76.7396 22.4965 76.7946 22.468L78.5177 21.2581C78.6186 21.1761 78.7395 21.1226 78.8679 21.1033C78.9276 21.1038 78.9864 21.1181 79.0398 21.1449C79.0932 21.1717 79.1398 21.2104 79.1761 21.2581C79.4773 21.6865 79.8697 22.0421 80.3248 22.2992C80.8159 22.526 81.3537 22.6321 81.8937 22.6087C82.402 22.6272 82.9084 22.536 83.3786 22.3414C83.532 22.2925 83.6666 22.1974 83.7643 22.069C83.8621 21.9407 83.9181 21.7853 83.925 21.6239C83.9255 21.518 83.9018 21.4135 83.8556 21.3183C83.8095 21.2232 83.7421 21.14 83.6588 21.0752C83.4329 20.8877 83.1627 20.7617 82.8743 20.7094L80.3108 20.0903C79.386 19.8832 78.5486 19.3913 77.9153 18.6835C77.3841 18.0917 77.0696 17.3357 77.0238 16.5402C76.9779 15.7448 77.2035 14.9574 77.6632 14.308C78.1271 13.6829 78.7518 13.1965 79.4703 12.9012C80.3546 12.5213 81.3105 12.3389 82.272 12.3665C83.2277 12.3603 84.1768 12.5271 85.0737 12.859C85.8169 13.1013 86.4675 13.568 86.9368 14.1955C87.0105 14.2714 87.0552 14.3711 87.0629 14.4769C87.0602 14.5215 87.0475 14.565 87.0256 14.604C87.0038 14.643 86.9734 14.6765 86.9368 14.702L85.1157 16.0244C85.0894 16.0488 85.0585 16.0676 85.0248 16.0797C84.9911 16.0918 84.9553 16.0969 84.9196 16.0948C84.795 16.0629 84.6828 15.9943 84.5974 15.8978C84.3341 15.6237 84.02 15.4039 83.6728 15.2507Z" fill="black"/>
<path d="M97.233 16.1511C97.3582 16.1361 97.4841 16.1715 97.5833 16.2495C97.6588 16.3448 97.694 16.4661 97.6813 16.5872V27.5046C97.6878 27.6055 97.6579 27.7054 97.5973 27.786C97.566 27.8173 97.5288 27.8422 97.4879 27.8591C97.4471 27.876 97.4033 27.8846 97.3591 27.8845H94.5574C94.3473 27.8845 94.2492 27.7719 94.2492 27.5468V24.6205C94.2492 24.4376 94.2492 24.3532 94.1372 24.3532C94.0633 24.3543 93.9928 24.3846 93.941 24.4376C93.3612 24.9363 92.6306 25.2238 91.8678 25.2536C91.3718 25.2787 90.8772 25.1831 90.426 24.9749C89.9747 24.7667 89.5803 24.452 89.2762 24.0578C88.5872 23.0577 88.2563 21.8524 88.3376 20.639C88.315 19.796 88.4676 18.9574 88.7859 18.177C89.0503 17.5199 89.4978 16.9532 90.0747 16.545C90.6596 16.1433 91.3555 15.9365 92.0639 15.9541C92.6088 15.9473 93.1473 16.0715 93.6347 16.3162C94.122 16.561 94.5441 16.9192 94.8656 17.361C94.8957 17.3978 94.9341 17.4267 94.9777 17.4454C94.9777 17.4454 94.9777 17.4454 95.0897 17.3047L95.3559 16.5309C95.44 16.2636 95.58 16.137 95.7762 16.137L97.233 16.1511ZM94.3193 19.2884C94.3323 18.9278 94.2182 18.574 93.9971 18.2895C93.8956 18.1654 93.767 18.0665 93.6212 18.0006C93.4754 17.9347 93.3163 17.9036 93.1566 17.9097C92.246 17.9097 91.7557 18.8241 91.7557 20.625C91.7104 21.316 91.8205 22.0084 92.0779 22.6509C92.1655 22.8333 92.3028 22.987 92.4739 23.0941C92.645 23.2012 92.8429 23.2573 93.0445 23.2558C93.2777 23.2539 93.508 23.2028 93.7203 23.1058C93.9327 23.0089 94.1224 22.8683 94.2773 22.6931L94.3193 19.2884Z" fill="black"/>
<path d="M103.845 22.7071C104.067 22.5772 104.262 22.4052 104.419 22.2007V16.5731C104.413 16.5054 104.422 16.437 104.446 16.3735C104.471 16.31 104.509 16.2531 104.56 16.2073C104.68 16.1173 104.831 16.077 104.98 16.0948H107.375C107.496 16.0821 107.617 16.1174 107.711 16.1933C107.753 16.2379 107.785 16.2913 107.805 16.3496C107.824 16.408 107.83 16.4698 107.824 16.5309V24.6627C107.824 24.916 107.711 25.0285 107.501 25.0285H104.84C104.644 25.0285 104.546 24.916 104.546 24.6909V23.9593C104.546 23.8608 104.546 23.8186 104.461 23.8186C104.377 23.8186 104.461 23.8186 104.335 23.8889C103.996 24.3084 103.571 24.6491 103.089 24.8878C102.604 25.1037 102.078 25.2094 101.548 25.1973C101.211 25.2121 100.874 25.1531 100.562 25.0243C100.25 24.8956 99.9699 24.7002 99.7406 24.4517C99.2475 23.8804 98.9961 23.1383 99.0402 22.3836V16.6435C99.0402 16.3058 99.2223 16.1511 99.5585 16.1511H102.024C102.077 16.1437 102.132 16.1487 102.183 16.1658C102.234 16.1829 102.28 16.2115 102.318 16.2495C102.386 16.3481 102.416 16.4681 102.402 16.5872V22.074C102.397 22.1861 102.415 22.298 102.456 22.4024C102.497 22.5067 102.56 22.601 102.64 22.679C102.72 22.7514 102.813 22.8074 102.914 22.8436C103.015 22.8798 103.122 22.8956 103.229 22.89C103.446 22.8779 103.657 22.8153 103.845 22.7071Z" fill="black"/>
<path d="M111.466 25.324C110.747 25.3641 110.041 25.1162 109.504 24.6346C109.264 24.4088 109.074 24.1337 108.948 23.8279C108.823 23.522 108.764 23.1926 108.776 22.8619C108.765 22.218 108.989 21.5923 109.406 21.1033C109.894 20.5654 110.512 20.1631 111.2 19.9356C112.104 19.6431 113.051 19.5051 114.001 19.5276H114.127C114.295 19.5276 114.379 19.4432 114.379 19.2884V19.007C114.396 18.8726 114.381 18.7362 114.337 18.6083C114.292 18.4804 114.219 18.3645 114.123 18.2694C114.027 18.1743 113.91 18.1026 113.782 18.0597C113.655 18.0169 113.519 18.004 113.385 18.0222C113.122 18.0259 112.864 18.0884 112.628 18.2051C112.383 18.3496 112.188 18.5655 112.068 18.8241C112.045 18.8814 112.012 18.9339 111.97 18.9789C111.915 18.9953 111.857 18.9953 111.802 18.9789H111.62L109.42 18.5428C109.367 18.5357 109.319 18.5085 109.285 18.4666C109.251 18.4248 109.234 18.3715 109.238 18.3177C109.223 18.2104 109.223 18.1014 109.238 17.9941C109.715 16.6575 111.129 15.9822 113.441 15.9822C114.529 15.8863 115.619 16.1427 116.551 16.7138C116.857 16.9567 117.102 17.2701 117.262 17.6276C117.423 17.9851 117.496 18.3761 117.475 18.7679V24.6487C117.487 24.772 117.457 24.8956 117.391 25.0004C117.391 25.0004 117.237 25.0989 117.083 25.0989H114.87C114.813 25.1054 114.755 25.0956 114.703 25.0708C114.651 25.0459 114.607 25.0069 114.576 24.9582C114.497 24.8191 114.444 24.6664 114.421 24.508V24.3954C114.421 24.2829 114.421 24.2266 114.295 24.2266C114.171 24.242 114.057 24.3019 113.973 24.3954C113.283 25.0104 112.388 25.3419 111.466 25.324ZM114.267 21.1033C114.242 21.0774 114.211 21.0576 114.177 21.0455C114.143 21.0333 114.107 21.029 114.071 21.033C113.804 21.0466 113.54 21.0987 113.287 21.1877C112.99 21.2838 112.714 21.4367 112.474 21.6379C112.363 21.7238 112.273 21.8348 112.212 21.9618C112.152 22.0889 112.121 22.2285 112.124 22.3695C112.121 22.4784 112.142 22.5868 112.185 22.6866C112.229 22.7864 112.294 22.8751 112.376 22.9463C112.577 23.0986 112.826 23.1735 113.077 23.1574C113.414 23.1647 113.742 23.0498 114.001 22.8338C114.108 22.7691 114.198 22.6811 114.266 22.5764C114.334 22.4716 114.378 22.3528 114.393 22.2288V21.3425C114.387 21.2952 114.372 21.2495 114.348 21.2084C114.324 21.1673 114.292 21.1315 114.253 21.1033H114.267Z" fill="black"/>
<path d="M118.89 24.9863C118.854 24.9442 118.826 24.895 118.809 24.8418C118.792 24.7885 118.786 24.7324 118.792 24.6768V16.5309C118.792 16.2777 118.904 16.1511 119.114 16.1511H121.734C121.775 16.1486 121.816 16.1548 121.855 16.1693C121.894 16.1839 121.929 16.2064 121.958 16.2355C122.016 16.3012 122.046 16.387 122.042 16.4746V17.4313C122.042 17.5298 122.042 17.5861 122.154 17.5861C122.189 17.5809 122.222 17.5681 122.251 17.5486C122.28 17.5292 122.304 17.5035 122.322 17.4735C122.612 17.0363 123.001 16.6746 123.457 16.4184C123.842 16.1511 124.293 15.9953 124.76 15.9682C125.18 15.9682 125.39 16.0807 125.39 16.3058V18.8804C125.393 18.9251 125.386 18.9699 125.369 19.0114C125.352 19.0528 125.325 19.0898 125.292 19.1196C125.253 19.1384 125.21 19.1481 125.166 19.1481C125.122 19.1481 125.079 19.1384 125.04 19.1196C124.583 18.9995 124.112 18.9381 123.639 18.9367C123.277 18.9328 122.924 19.0574 122.644 19.2884C122.515 19.3765 122.407 19.4933 122.329 19.6299C122.251 19.7665 122.206 19.9192 122.196 20.0763V24.5783C122.204 24.6482 122.195 24.719 122.171 24.785C122.147 24.8509 122.107 24.9103 122.056 24.9582C121.931 25.0375 121.783 25.0722 121.636 25.0567H119.226C119.169 25.0694 119.109 25.0697 119.051 25.0575C118.993 25.0454 118.938 25.0212 118.89 24.9863Z" fill="black"/>
<path d="M129.691 22.6368C130.051 22.9148 130.498 23.0545 130.952 23.0307C131.254 23.0295 131.551 22.9572 131.82 22.8197C132.174 22.6277 132.495 22.3808 132.773 22.0881C132.819 22.0755 132.867 22.0755 132.913 22.0881C132.987 22.0747 133.063 22.0747 133.137 22.0881L134.664 22.7071C134.708 22.7169 134.748 22.7419 134.776 22.7778C134.804 22.8138 134.819 22.8584 134.818 22.9041C134.815 22.9821 134.785 23.0567 134.734 23.1151C134.277 23.8217 133.651 24.402 132.913 24.8034C132.149 25.1371 131.321 25.2957 130.489 25.2677C129.652 25.2804 128.825 25.0872 128.08 24.7049C127.378 24.3322 126.789 23.7786 126.371 23.1011C125.955 22.3996 125.742 21.5959 125.754 20.7797C125.74 19.9081 125.958 19.0484 126.385 18.2895C126.804 17.5867 127.398 17.005 128.108 16.6013C128.811 16.1942 129.608 15.9807 130.419 15.9822C131.245 15.9677 132.06 16.1663 132.787 16.559C133.497 16.934 134.085 17.5052 134.482 18.2051C134.89 19.01 135.093 19.9046 135.07 20.8078C135.099 20.9137 135.099 21.0256 135.07 21.1314C135.07 21.1314 134.958 21.2158 134.818 21.2299H129.467C129.299 21.2299 129.214 21.3143 129.214 21.5113C129.204 21.7228 129.242 21.9339 129.325 22.1287C129.407 22.3236 129.532 22.4973 129.691 22.6368ZM131.456 19.4854C131.529 19.5057 131.607 19.5057 131.68 19.4854C131.68 19.4854 131.68 19.3869 131.68 19.2884C131.675 18.9759 131.567 18.6739 131.372 18.4302C131.28 18.2881 131.153 18.1729 131.003 18.0963C130.853 18.0197 130.685 17.9844 130.517 17.9941C130.342 17.9898 130.168 18.0226 130.006 18.0905C129.844 18.1584 129.699 18.2598 129.579 18.388C129.44 18.5378 129.336 18.716 129.273 18.9104C129.21 19.1048 129.19 19.3106 129.214 19.5135L131.456 19.4854Z" fill="black"/>
<path d="M0 19.9637L10.5764 0L32.7519 0.717512L14.5548 38L0 19.9637Z" fill="#74D2FF"/>
</g>
<defs>
<clipPath id="clip0_13_2">
<rect width="135" height="38" fill="white"/>
</clipPath>
</defs>
</svg>
