<svg width="20" height="20" viewBox="0 0 20 20" fill="none" xmlns="http://www.w3.org/2000/svg">
<g clip-path="url(#clip0_418_135)">
<mask id="mask0_418_135" style="mask-type:luminance" maskUnits="userSpaceOnUse" x="0" y="0" width="20" height="20">
<path d="M20 0H0V20H20V0Z" fill="white"/>
<path d="M1.5625 8.22917V8.0078C1.5625 4.45387 4.45385 1.56251 8.00779 1.56251C11.3469 1.56251 14.1009 4.11496 14.4216 7.37116L15.9877 8.79983C16.0058 8.60709 16.0156 8.4167 16.0156 8.22917V8.0078C16.0156 3.59231 12.4233 1.04561e-05 8.00779 1.04561e-05C3.59229 1.04561e-05 0 3.59231 0 8.0078V8.22917C0 10.4623 1.28031 13.0645 3.80538 15.9636C5.63592 18.0653 7.44088 19.5307 7.51681 19.5921L8.00779 19.9887V17.9581C6.42455 16.5709 1.5625 12.0027 1.5625 8.22917Z" fill="white"/>
<path d="M15.1562 16.836H12.8125V14.4922H15.1562V16.836Z" fill="white"/>
</mask>
<g mask="url(#mask0_418_135)">
<mask id="mask1_418_135" style="mask-type:luminance" maskUnits="userSpaceOnUse" x="0" y="0" width="20" height="20">
<path d="M0 5.91278e-05H19.9999V20H0V5.91278e-05Z" fill="white"/>
</mask>
<g mask="url(#mask1_418_135)">
<path d="M1.5625 8.22917V8.00781C1.5625 4.45387 4.45385 1.56251 8.00779 1.56251C11.3469 1.56251 14.1009 4.11497 14.4216 7.37117L15.9877 8.79984C16.0058 8.6071 16.0156 8.41671 16.0156 8.22917V8.00781C16.0156 3.59231 12.4233 1.80855e-05 8.00779 1.80855e-05C3.59229 1.80855e-05 0 3.59231 0 8.00781V8.22917C0 10.4623 1.28031 13.0645 3.80538 15.9636C5.63592 18.0653 7.44088 19.5307 7.51681 19.5921L8.00779 19.9887V17.9581C6.42455 16.5709 1.5625 12.0028 1.5625 8.22917Z" fill="black"/>
<path d="M15.1562 16.8359H12.8125V14.4922H15.1562V16.8359Z" fill="black"/>
<path d="M5.46875 8.00784C5.46875 6.60558 6.60554 5.46879 8.00781 5.46879C9.41007 5.46879 10.5469 6.60558 10.5469 8.00784C10.5469 9.4101 9.41007 10.5469 8.00781 10.5469C6.60554 10.5469 5.46875 9.4101 5.46875 8.00784Z" stroke="black" stroke-width="1.5" stroke-miterlimit="10" stroke-linecap="round" stroke-linejoin="round"/>
<path d="M9.4043 13.6327C9.4043 13.2185 9.74008 12.8827 10.1543 12.8827C10.5685 12.8827 10.9043 13.2185 10.9043 13.6327H9.4043ZM18.5254 13.6327V17.8817H17.0254V13.6327H18.5254ZM18.5254 17.8817C18.5254 19.0343 17.591 19.9688 16.4384 19.9688V18.4688C16.7626 18.4688 17.0254 18.2059 17.0254 17.8817H18.5254ZM16.4384 19.9688H11.4913V18.4688H16.4384V19.9688ZM11.4913 19.9688C10.3387 19.9688 9.4043 19.0343 9.4043 17.8817H10.9043C10.9043 18.2059 11.1671 18.4688 11.4913 18.4688V19.9688ZM9.4043 17.8817V13.6327H10.9043V17.8817H9.4043Z" fill="black"/>
<path d="M18.9453 14.6705L13.9648 10.1269L8.98438 14.6705" stroke="black" stroke-width="1.5" stroke-miterlimit="10" stroke-linecap="round"/>
</g>
</g>
</g>
<defs>
<clipPath id="clip0_418_135">
<rect width="20" height="20" fill="white"/>
</clipPath>
</defs>
</svg>
