<svg width="20" height="20" viewBox="0 0 20 20" fill="none" xmlns="http://www.w3.org/2000/svg">
<path d="M1.875 10C1.875 9.83424 1.94085 9.67527 2.05806 9.55806C2.17527 9.44085 2.33424 9.375 2.5 9.375H17.5C17.6658 9.375 17.8247 9.44085 17.9419 9.55806C18.0592 9.67527 18.125 9.83424 18.125 10C18.125 10.1658 18.0592 10.3247 17.9419 10.4419C17.8247 10.5592 17.6658 10.625 17.5 10.625H2.5C2.33424 10.625 2.17527 10.5592 2.05806 10.4419C1.94085 10.3247 1.875 10.1658 1.875 10Z" fill="#B1B1B1"/>
<path d="M12.0588 4.55833C12.1759 4.44129 12.3348 4.37555 12.5004 4.37555C12.6661 4.37555 12.8249 4.44129 12.9421 4.55833L17.9421 9.55833C18.0591 9.67552 18.1249 9.83437 18.1249 10C18.1249 10.1656 18.0591 10.3245 17.9421 10.4417L12.9421 15.4417C12.8236 15.5521 12.6669 15.6122 12.505 15.6093C12.3431 15.6065 12.1886 15.5409 12.0741 15.4264C11.9596 15.3118 11.894 15.1574 11.8911 14.9954C11.8883 14.8335 11.9484 14.6768 12.0588 14.5583L16.6171 10L12.0588 5.44167C11.9417 5.32448 11.876 5.16562 11.876 5C11.876 4.83437 11.9417 4.67552 12.0588 4.55833Z" fill="#B1B1B1"/>
</svg>
