<svg width="24" height="24" viewBox="0 0 24 24" fill="none" xmlns="http://www.w3.org/2000/svg">
<path d="M20.6201 2.62791C20.2199 2.22884 19.6786 2.00366 19.1134 2.00124H3.46675C3.31197 1.99178 3.15873 2.03657 3.03342 2.12791C2.94634 2.1945 2.87579 2.28026 2.82723 2.37854C2.77867 2.47681 2.75341 2.58496 2.75342 2.69458V19.8146C2.75637 19.9641 2.80622 20.1089 2.89595 20.2285C2.98567 20.3481 3.11072 20.4365 3.25342 20.4812L12.0734 23.2279C12.3962 23.331 12.7386 23.357 13.0732 23.3037C13.4078 23.2504 13.7253 23.1194 14.0001 22.9212C14.2689 22.7222 14.4873 22.463 14.6379 22.1643C14.7884 21.8655 14.8668 21.5357 14.8668 21.2012H19.1334C19.6986 21.1988 20.2399 20.9736 20.6401 20.5746C20.8389 20.3773 20.9966 20.1426 21.1042 19.884C21.2118 19.6253 21.267 19.348 21.2668 19.0679V4.13458C21.259 3.56657 21.0265 3.02479 20.6201 2.62791ZM13.4201 21.2079C13.4176 21.3179 13.3897 21.4258 13.3386 21.5232C13.2875 21.6207 13.2146 21.705 13.1255 21.7695C13.0364 21.8341 12.9336 21.8771 12.8251 21.8954C12.7166 21.9136 12.6054 21.9065 12.5001 21.8746L4.18008 19.2946V3.64124L12.8934 5.96124C13.0411 6.0012 13.172 6.08758 13.2668 6.20762C13.3617 6.32766 13.4154 6.475 13.4201 6.62791V21.2079ZM19.8201 19.0679C19.8201 19.2571 19.7449 19.4385 19.6112 19.5723C19.4774 19.7061 19.2959 19.7812 19.1068 19.7812H14.8401V6.66791C14.8385 6.19796 14.6823 5.74161 14.3955 5.3693C14.1087 4.99698 13.7074 4.72942 13.2534 4.60791L8.89342 3.42124H19.1134C19.3014 3.423 19.4812 3.49893 19.6135 3.63252C19.7459 3.7661 19.8201 3.94654 19.8201 4.13458V19.0679Z" fill="black"/>
<path d="M10.5801 11.9612H12.0001V14.8012H10.5801V11.9612Z" fill="black"/>
</svg>
