<svg width="14" height="14" viewBox="0 0 14 14" fill="none" xmlns="http://www.w3.org/2000/svg">
<g clip-path="url(#clip0_42_1062)">
<path d="M13.4885 2.73282C13.3969 2.29008 13.1831 1.89313 12.8778 1.58779C12.7862 1.49618 12.6793 1.40458 12.5572 1.32824L12.5419 1.31298C12.5266 1.29771 12.5114 1.29771 12.4961 1.28244C12.4503 1.25191 12.4045 1.22137 12.3587 1.20611H12.3434C12.0228 1.03817 11.6717 0.946565 11.2747 0.946565H10.3282V0.290076C10.3282 0.137405 10.206 0 10.0381 0C9.88542 0 9.74802 0.122137 9.74802 0.290076V0.916031H4.2671V0.290076C4.2671 0.137405 4.1297 0 3.97703 0C3.82435 0 3.68695 0.122137 3.68695 0.290076V0.916031H2.74039C2.45031 0.916031 2.16023 0.977099 1.90069 1.08397C1.61061 1.20611 1.35107 1.37405 1.13733 1.58779C1.01519 1.70992 0.908324 1.84733 0.816721 1.98473C0.725118 2.1374 0.648782 2.29008 0.587714 2.45802C0.557179 2.54962 0.526645 2.64122 0.511378 2.73282C0.480843 2.8855 0.465576 3.03817 0.465576 3.19084V11.7557C0.465576 12.3817 0.725118 12.9466 1.12206 13.3435C1.53428 13.7557 2.09916 14 2.70985 14H11.29C11.916 14 12.4808 13.7405 12.8778 13.3435C13.29 12.9313 13.5343 12.3664 13.5343 11.7557V3.19084C13.5343 3.03817 13.519 2.8855 13.4885 2.73282ZM1.061 3.17557C1.061 3.05344 1.07626 2.94656 1.09153 2.83969C1.1068 2.73282 1.1526 2.62595 1.18313 2.51908C1.2442 2.38168 1.32054 2.25954 1.39687 2.15267C1.44268 2.0916 1.48848 2.0458 1.53428 1.98473C1.62588 1.89313 1.73275 1.81679 1.83962 1.74046C2.09916 1.58779 2.38924 1.49618 2.70985 1.49618H3.65642V2.12214C3.65642 2.27481 3.77855 2.41221 3.94649 2.41221C4.09916 2.41221 4.23657 2.29008 4.23657 2.12214V1.49618H9.79382V2.12214C9.79382 2.27481 9.91596 2.41221 10.0839 2.41221C10.2366 2.41221 10.374 2.29008 10.374 2.12214V1.49618H11.3205C11.6411 1.49618 11.9465 1.58779 12.1908 1.74046C12.2976 1.81679 12.4045 1.89313 12.4961 1.98473C12.7251 2.21374 12.8931 2.50382 12.9541 2.83969C12.9694 2.94656 12.9847 3.0687 12.9847 3.17557V4.42748H1.061V3.17557ZM12.9999 11.7405C12.9999 12.2137 12.8167 12.6412 12.5114 12.9466C12.206 13.2519 11.7786 13.4351 11.3205 13.4351H2.74039C2.28237 13.4351 1.85489 13.2519 1.54955 12.9466C1.2442 12.6412 1.061 12.2137 1.061 11.7557V4.99237H12.9999V11.7405Z" fill="#2B2B2B"/>
</g>
<defs>
<clipPath id="clip0_42_1062">
<rect width="14" height="14" fill="white"/>
</clipPath>
</defs>
</svg>
