<svg width="24" height="24" viewBox="0 0 24 24" fill="none" xmlns="http://www.w3.org/2000/svg">
<path fill-rule="evenodd" clip-rule="evenodd" d="M1 7.75C1 6.49022 1.50045 5.28204 2.39124 4.39124C3.28204 3.50045 4.49022 3 5.75 3H17.75C19.0098 3 20.218 3.50045 21.1088 4.39124C21.9996 5.28204 22.5 6.49022 22.5 7.75V8.973C22.5 9.539 22.106 9.948 21.68 10.095C21.3357 10.2139 21.0371 10.4373 20.8258 10.7339C20.6144 11.0306 20.5008 11.3858 20.5008 11.75C20.5008 12.1142 20.6144 12.4694 20.8258 12.7661C21.0371 13.0627 21.3357 13.2861 21.68 13.405C22.106 13.552 22.5 13.961 22.5 14.527V15.75C22.5 17.0098 21.9996 18.218 21.1088 19.1088C20.218 19.9996 19.0098 20.5 17.75 20.5H5.75C4.49022 20.5 3.28204 19.9996 2.39124 19.1088C1.50045 18.218 1 17.0098 1 15.75V14.527C1 13.961 1.394 13.552 1.82 13.405C2.16427 13.2861 2.46288 13.0627 2.67424 12.7661C2.88559 12.4694 2.99918 12.1142 2.99918 11.75C2.99918 11.3858 2.88559 11.0306 2.67424 10.7339C2.46288 10.4373 2.16427 10.2139 1.82 10.095C1.394 9.948 1 9.539 1 8.973V7.75ZM5.75 4.5C4.88805 4.5 4.0614 4.84241 3.4519 5.4519C2.84241 6.0614 2.5 6.88805 2.5 7.75V8.75C3.09228 8.99678 3.59825 9.41336 3.95416 9.94722C4.31008 10.4811 4.5 11.1084 4.5 11.75C4.5 12.3916 4.31008 13.0189 3.95416 13.5528C3.59825 14.0866 3.09228 14.5032 2.5 14.75V15.75C2.5 16.612 2.84241 17.4386 3.4519 18.0481C4.0614 18.6576 4.88805 19 5.75 19H17.75C18.612 19 19.4386 18.6576 20.0481 18.0481C20.6576 17.4386 21 16.612 21 15.75V14.75C20.4077 14.5032 19.9018 14.0866 19.5458 13.5528C19.1899 13.0189 19 12.3916 19 11.75C19 11.1084 19.1899 10.4811 19.5458 9.94722C19.9018 9.41336 20.4077 8.99678 21 8.75V7.75C21 6.88805 20.6576 6.0614 20.0481 5.4519C19.4386 4.84241 18.612 4.5 17.75 4.5H5.75Z" fill="black"/>
<path fill-rule="evenodd" clip-rule="evenodd" d="M14.75 3C14.9489 3 15.1397 3.07902 15.2803 3.21967C15.421 3.36032 15.5 3.55109 15.5 3.75V6.75C15.5 6.94891 15.421 7.13968 15.2803 7.28033C15.1397 7.42098 14.9489 7.5 14.75 7.5C14.5511 7.5 14.3603 7.42098 14.2197 7.28033C14.079 7.13968 14 6.94891 14 6.75V3.75C14 3.55109 14.079 3.36032 14.2197 3.21967C14.3603 3.07902 14.5511 3 14.75 3ZM14.75 9.5C14.9489 9.5 15.1397 9.57902 15.2803 9.71967C15.421 9.86032 15.5 10.0511 15.5 10.25V13.25C15.5 13.4489 15.421 13.6397 15.2803 13.7803C15.1397 13.921 14.9489 14 14.75 14C14.5511 14 14.3603 13.921 14.2197 13.7803C14.079 13.6397 14 13.4489 14 13.25V10.25C14 10.0511 14.079 9.86032 14.2197 9.71967C14.3603 9.57902 14.5511 9.5 14.75 9.5ZM14.75 16C14.9489 16 15.1397 16.079 15.2803 16.2197C15.421 16.3603 15.5 16.5511 15.5 16.75V19.75C15.5 19.9489 15.421 20.1397 15.2803 20.2803C15.1397 20.421 14.9489 20.5 14.75 20.5C14.5511 20.5 14.3603 20.421 14.2197 20.2803C14.079 20.1397 14 19.9489 14 19.75V16.75C14 16.5511 14.079 16.3603 14.2197 16.2197C14.3603 16.079 14.5511 16 14.75 16Z" fill="black"/>
</svg>
