<svg width="20" height="20" viewBox="0 0 20 20" fill="none" xmlns="http://www.w3.org/2000/svg">
<g clip-path="url(#clip0_27_71)">
<path d="M16.4453 0.585938H17.6172V5.89844H16.4453V0.585938Z" fill="#75D3FF"/>
<path d="M19.3944 7.07039C18.4344 7.07684 17.6311 7.91402 17.5748 8.87246C17.5394 9.47391 17.4752 10.075 17.3726 10.6565L16.8036 11.2323L16.1827 10.6352C13.147 10.8869 11.0889 13.1843 10.7715 16.0598C10.6484 17.1751 10.5859 18.2892 10.5859 19.375V20H15.2734V19.375C15.2734 18.8108 15.6923 18.4217 16.4951 17.7265C17.8752 16.5317 20 14.7253 20 10V7.07031C20 7.07031 19.401 7.07031 19.3944 7.07039Z" fill="#FFBB99"/>
<path d="M16.1827 10.6352C15.9462 11.8569 15.2933 13.7016 14.4151 14.1685L14.9496 15.2116C16.2706 14.5511 17.0941 12.2273 17.3726 10.6565C16.9713 10.6105 16.5754 10.6026 16.1827 10.6352Z" fill="#FF9680"/>
<path d="M0.605625 7.07039C1.56562 7.07684 2.36887 7.91402 2.42523 8.87246C2.46062 9.47391 2.5248 10.075 2.62738 10.6565L3.19641 11.2323L3.81727 10.6352C6.85301 10.8869 8.91113 13.1843 9.22848 16.0598C9.35156 17.1751 9.41406 18.2892 9.41406 19.375V20H4.72656V19.375C4.72656 18.8108 4.3077 18.4217 3.50492 17.7265C2.12477 16.5317 0 14.7253 0 10V7.07031C0 7.07031 0.599023 7.07031 0.605625 7.07039Z" fill="#FFD9B3"/>
<path d="M3.81724 10.6352C4.05376 11.8569 4.70666 13.7016 5.58486 14.1685L5.05041 15.2116C3.72935 14.5511 2.90587 12.2273 2.62732 10.6565C3.02865 10.6105 3.42455 10.6026 3.81724 10.6352Z" fill="#FFBB99"/>
<path d="M4.72656 0.585938H15.2734V8.24219H4.72656V0.585938Z" fill="#515866"/>
<path d="M10 0.585938H15.2734V8.24219H10V0.585938Z" fill="#353D4D"/>
<path d="M1.21094 0H18.7891V1.17188H1.21094V0Z" fill="#353D4D"/>
<path d="M10 0H18.7891V1.17188H10V0Z" fill="#1E2533"/>
</g>
<defs>
<clipPath id="clip0_27_71">
<rect width="20" height="20" fill="white"/>
</clipPath>
</defs>
</svg>
