<svg width="24" height="24" viewBox="0 0 24 24" fill="none" xmlns="http://www.w3.org/2000/svg">
<path d="M21.6886 6.27173L20.2326 6.27166V4.76448C20.2326 4.59752 20.1727 4.4361 20.0637 4.30959C19.9547 4.18309 19.804 4.09992 19.6388 4.0752C19.5793 4.06625 18.1608 3.86022 16.4528 4.17101C14.5487 4.51747 13.0301 5.37187 12.0002 6.66351C10.9701 5.37187 9.45157 4.51747 7.54751 4.17101C5.8394 3.86029 4.42097 4.06625 4.36146 4.0752C4.19634 4.09994 4.04559 4.18313 3.93663 4.30962C3.82766 4.43612 3.76772 4.59753 3.76771 4.76448V6.27166H2.31172C1.92687 6.27166 1.61475 6.58378 1.61475 6.96871V20.1029C1.61474 20.2142 1.64136 20.3238 1.69237 20.4226C1.74338 20.5215 1.81731 20.6067 1.90798 20.6711C1.99864 20.7355 2.10342 20.7773 2.21354 20.793C2.32366 20.8087 2.43593 20.7977 2.54097 20.7612C2.59328 20.743 7.81627 18.9605 11.7109 20.737C11.8017 20.7785 11.9004 20.7999 12.0002 20.7999C12.1 20.7999 12.1987 20.7785 12.2895 20.737C16.1732 18.9656 21.4074 20.7432 21.4594 20.7612C21.5644 20.7977 21.6767 20.8086 21.7868 20.793C21.8969 20.7773 22.0017 20.7355 22.0924 20.6712C22.1831 20.6067 22.257 20.5215 22.308 20.4227C22.359 20.3238 22.3856 20.2142 22.3856 20.103V6.96878C22.3856 6.58385 22.0735 6.27173 21.6886 6.27173ZM3.00877 19.1703V7.66568H3.76771V16.9479C3.7678 17.048 3.78945 17.1469 3.83118 17.2379C3.87291 17.3289 3.93375 17.4098 4.00954 17.4752C4.08534 17.5406 4.17436 17.589 4.27053 17.617C4.3667 17.645 4.46777 17.6519 4.56686 17.6374C4.60532 17.6318 7.63325 17.2161 9.84544 18.7339C7.12041 18.2679 4.39307 18.8069 3.00877 19.1703ZM11.3032 18.1053C10.3288 17.2249 9.05972 16.6297 7.54751 16.3545C6.81976 16.2221 6.1446 16.1835 5.6047 16.1835C5.44441 16.1835 5.29601 16.1869 5.1618 16.1923V5.40453H5.16173C6.50134 5.34411 9.76012 5.48734 11.3032 8.10313V18.1053ZM12.6971 8.1032C14.2347 5.4986 17.4985 5.34886 18.8386 5.40628V16.1923C18.2523 16.1686 17.3965 16.1828 16.4528 16.3545C14.9406 16.6297 13.6715 17.2249 12.6971 18.1053V8.1032ZM14.1526 18.7343C16.365 17.2156 19.3946 17.6317 19.4323 17.6373C19.5315 17.6522 19.6327 17.6455 19.729 17.6176C19.8254 17.5898 19.9146 17.5415 19.9905 17.4761C20.0665 17.4107 20.1275 17.3296 20.1692 17.2384C20.211 17.1473 20.2326 17.0482 20.2326 16.9479V7.66575H20.9915V19.1703C19.6068 18.8067 16.8784 18.2675 14.1526 18.7343Z" fill="black"/>
</svg>
