<svg width="18" height="18" viewBox="0 0 18 18" fill="none" xmlns="http://www.w3.org/2000/svg">
<g clip-path="url(#clip0_38_21)">
<path d="M10.5919 9.00019L17.6702 1.92191C17.7748 1.81744 17.8577 1.69337 17.9143 1.55682C17.9709 1.42026 18.0001 1.27388 18.0001 1.12606C18.0001 0.97823 17.9709 0.831854 17.9143 0.695296C17.8577 0.558737 17.7748 0.434675 17.6702 0.3302C17.5657 0.225618 17.4416 0.142652 17.3051 0.0860465C17.1685 0.0294408 17.0222 0.000305176 16.8743 0.000305176C16.7265 0.000305176 16.5801 0.0294408 16.4436 0.0860465C16.307 0.142652 16.1829 0.225618 16.0785 0.3302L9.0002 7.40848L1.92155 0.3302C1.81707 0.225618 1.69301 0.142652 1.55645 0.0860465C1.41989 0.0294408 1.27352 0.000305176 1.12569 0.000305176C0.977864 0.000305176 0.831488 0.0294408 0.69493 0.0860465C0.558371 0.142652 0.434308 0.225618 0.329834 0.3302C0.225251 0.434675 0.142286 0.558737 0.0856803 0.695296C0.0290746 0.831854 -6.10352e-05 0.97823 -6.10352e-05 1.12606C-6.10352e-05 1.27388 0.0290746 1.42026 0.0856803 1.55682C0.142286 1.69337 0.225251 1.81744 0.329834 1.92191L7.40848 9.00019L0.329834 16.0785C0.225345 16.183 0.142465 16.307 0.0859257 16.4436C0.0293863 16.5801 0.000294829 16.7265 0.000312248 16.8743C0.000329668 17.0221 0.0294557 17.1684 0.0860273 17.3049C0.142599 17.4414 0.225508 17.5655 0.330021 17.67C0.434535 17.7745 0.558605 17.8574 0.695149 17.9139C0.831693 17.9704 0.978036 17.9995 1.12582 17.9995C1.27361 17.9995 1.41995 17.9704 1.55648 17.9138C1.69301 17.8572 1.81706 17.7743 1.92155 17.6698L9.0002 10.5915L16.0785 17.6698C16.2984 17.8897 16.5865 17.9996 16.8743 17.9996C17.1621 17.9996 17.4503 17.8897 17.6702 17.6698C17.7748 17.5653 17.8577 17.4413 17.9143 17.3047C17.9709 17.1681 18.0001 17.0218 18.0001 16.8739C18.0001 16.7261 17.9709 16.5797 17.9143 16.4432C17.8577 16.3066 17.7748 16.1826 17.6702 16.0781L10.5919 9.00019Z" fill="#BCBCBC"/>
</g>
<defs>
<clipPath id="clip0_38_21">
<rect width="18" height="18" fill="white"/>
</clipPath>
</defs>
</svg>
