<svg width="24" height="24" viewBox="0 0 24 24" fill="none" xmlns="http://www.w3.org/2000/svg">
<g clip-path="url(#clip0_63_69)">
<path d="M23.1238 4.68484C22.9668 3.92585 22.6004 3.24537 22.0769 2.72192C21.9199 2.56489 21.7367 2.40785 21.5273 2.27699L21.5011 2.25082C21.4749 2.22465 21.4488 2.22465 21.4226 2.19847C21.3441 2.14613 21.2656 2.09378 21.187 2.06761H21.1609C20.6113 1.77972 20.0093 1.62268 19.3288 1.62268H17.7061V0.497274C17.7061 0.235551 17.4968 0 17.2089 0C16.9471 0 16.7116 0.209378 16.7116 0.497274V1.57034H7.31573V0.497274C7.31573 0.235551 7.08018 0 6.81846 0C6.55673 0 6.32118 0.209378 6.32118 0.497274V1.57034H4.6985C4.20123 1.57034 3.70395 1.67503 3.25902 1.85823C2.76175 2.06761 2.31682 2.35551 1.95041 2.72192C1.74103 2.9313 1.55782 3.16685 1.40079 3.4024C1.24376 3.66412 1.1129 3.92585 1.00821 4.21374C0.955862 4.37077 0.903517 4.52781 0.877345 4.68484C0.825 4.94656 0.798828 5.20829 0.798828 5.47001V20.1527C0.798828 21.2257 1.24376 22.1941 1.92424 22.8746C2.63089 23.5812 3.59926 24 4.64616 24H19.355C20.4281 24 21.3964 23.5551 22.0769 22.8746C22.7836 22.1679 23.2023 21.1996 23.2023 20.1527V5.47001C23.2023 5.20829 23.1761 4.94656 23.1238 4.68484ZM1.81955 5.44384C1.81955 5.23446 1.84572 5.05125 1.87189 4.86805C1.89806 4.68484 1.97658 4.50164 2.02893 4.31843C2.13362 4.08288 2.26448 3.8735 2.39534 3.69029C2.47386 3.58561 2.55237 3.50709 2.63089 3.4024C2.78792 3.24537 2.97113 3.1145 3.15434 2.98364C3.59926 2.72192 4.09654 2.56489 4.64616 2.56489H6.26884V3.63795C6.26884 3.89967 6.47822 4.13522 6.76611 4.13522C7.02784 4.13522 7.26339 3.92585 7.26339 3.63795V2.56489H16.7901V3.63795C16.7901 3.89967 16.9995 4.13522 17.2874 4.13522C17.5491 4.13522 17.7847 3.92585 17.7847 3.63795V2.56489H19.4073C19.957 2.56489 20.4804 2.72192 20.8992 2.98364C21.0824 3.1145 21.2656 3.24537 21.4226 3.4024C21.8152 3.79498 22.1031 4.29226 22.2078 4.86805C22.2339 5.05125 22.2601 5.26063 22.2601 5.44384V7.58997H1.81955V5.44384ZM22.2863 20.1265C22.2863 20.9378 21.9722 21.6707 21.4488 22.1941C20.9253 22.7176 20.1925 23.0316 19.4073 23.0316H4.6985C3.91333 23.0316 3.18051 22.7176 2.65706 22.1941C2.13362 21.6707 1.81955 20.9378 1.81955 20.1527V8.55834H22.2863V20.1265Z" fill="#B1B1B1"/>
</g>
<defs>
<clipPath id="clip0_63_69">
<rect width="24" height="24" fill="white"/>
</clipPath>
</defs>
</svg>
