<svg width="19" height="19" viewBox="0 0 19 19" fill="none" xmlns="http://www.w3.org/2000/svg">
<path d="M13.0625 14.25V16.0312C13.0625 16.1887 12.9999 16.3397 12.8886 16.4511C12.7772 16.5624 12.6262 16.625 12.4688 16.625H6.53125C6.37378 16.625 6.22275 16.5624 6.11141 16.4511C6.00006 16.3397 5.9375 16.1887 5.9375 16.0312V14.25C5.9375 12.2853 7.53528 10.6875 9.5 10.6875C11.4647 10.6875 13.0625 12.2853 13.0625 14.25ZM14.8438 8.3125C13.5316 8.3125 12.3856 9.025 11.7681 10.0819C12.519 10.4885 13.1461 11.0905 13.5829 11.8242C14.0198 12.5579 14.2503 13.3961 14.25 14.25H17.8125C18.1391 14.25 18.4062 13.9828 18.4062 13.6562V11.875C18.4062 9.90969 16.8091 8.3125 14.8438 8.3125ZM9.5 4.75C8.19019 4.75 7.125 5.81519 7.125 7.125C7.125 8.43481 8.19019 9.5 9.5 9.5C10.8098 9.5 11.875 8.43481 11.875 7.125C11.875 5.81519 10.8098 4.75 9.5 4.75ZM14.8438 2.375C13.5339 2.375 12.4688 3.44019 12.4688 4.75C12.4688 6.05981 13.5339 7.125 14.8438 7.125C16.1536 7.125 17.2188 6.05981 17.2188 4.75C17.2188 3.44019 16.1536 2.375 14.8438 2.375ZM4.15625 2.375C2.84644 2.375 1.78125 3.44019 1.78125 4.75C1.78125 6.05981 2.84644 7.125 4.15625 7.125C5.46606 7.125 6.53125 6.05981 6.53125 4.75C6.53125 3.44019 5.46606 2.375 4.15625 2.375ZM4.15625 8.3125C2.19094 8.3125 0.59375 9.90969 0.59375 11.875V13.6562C0.59375 13.9828 0.860938 14.25 1.1875 14.25H4.75C4.7497 13.3961 4.98017 12.5579 5.41705 11.8242C5.85393 11.0905 6.48098 10.4885 7.23188 10.0819C6.91865 9.5438 6.46982 9.09726 5.93016 8.7868C5.39049 8.47633 4.77885 8.31279 4.15625 8.3125Z" fill="black"/>
</svg>
