<svg width="20" height="20" viewBox="0 0 20 20" fill="none" xmlns="http://www.w3.org/2000/svg">
<g clip-path="url(#clip0_27_46)">
<path d="M0 3.05063H20V16.5357H0V3.05063Z" fill="#74D2FF"/>
<path d="M10 3.05063H20V16.5357H10V3.05063Z" fill="#338DB9"/>
<path d="M11.8159 1.66187C11.0911 1.66187 10.4407 1.98505 9.99997 2.49437C9.55923 1.98505 8.90892 1.66187 8.18408 1.66187H2.15234V13.2951H8.18412C8.86236 13.2951 9.41418 13.8469 9.41418 14.5252V14.5611H10.5859V14.5252C10.5859 13.847 11.1377 13.2951 11.8159 13.2951H17.8477V1.66187H11.8159Z" fill="#F9F9F9"/>
<path d="M11.8159 1.66187C11.0911 1.66187 10.4407 1.98505 10 2.49437V14.5611H10.5859V14.5252C10.5859 13.847 11.1376 13.2951 11.8159 13.2951H17.8477V1.66187H11.8159Z" fill="#F4F1F1"/>
<path d="M12.6686 14.4883V17.1082C12.6686 17.7875 13.2193 18.3382 13.8986 18.3382C14.5778 18.3382 15.1285 17.7875 15.1285 17.1082V14.4883H12.6686Z" fill="#08475E"/>
<path d="M12.6686 14.4883V17.1082C12.6686 17.7875 13.2193 18.3382 13.8986 18.3382C14.5778 18.3382 15.1285 17.7875 15.1285 17.1082V14.4883H12.6686Z" fill="#05303D"/>
<path d="M15.1285 8.58041L13.8985 7.16714L12.6686 8.58041V15.3793H15.1285V8.58041Z" fill="#00D3FF"/>
<path d="M15.1285 8.58041L13.8985 7.16714L12.6686 8.58041V15.3793H15.1285V8.58041Z" fill="#FFBE3D"/>
<path d="M13.3127 6.79013H14.4843V7.84061H13.3127V6.79013Z" fill="#08475E"/>
<path d="M13.3127 6.79013H14.4843V7.84061H13.3127V6.79013Z" fill="#05303D"/>
<path d="M4.37854 4.37308H8.35971V5.54474H4.37854V4.37308ZM4.37854 6.71657H8.35971V7.88823H4.37854V6.71657ZM4.37854 9.06002H8.35971V10.2317H4.37854V9.06002Z" fill="#08475E"/>
</g>
<defs>
<clipPath id="clip0_27_46">
<rect width="20" height="20" fill="white"/>
</clipPath>
</defs>
</svg>
