<svg width="14" height="14" viewBox="0 0 14 14" fill="none" xmlns="http://www.w3.org/2000/svg">
<path d="M10.9379 1.67112C10.4248 1.15707 9.81529 0.749257 9.14436 0.471014C8.47343 0.19277 7.75422 0.0495589 7.02788 0.0495758C6.30152 0.049551 5.58228 0.192758 4.91132 0.471001C4.24036 0.749245 3.63086 1.15706 3.11769 1.67112C2.11838 2.67596 1.5166 4.00857 1.42357 5.42265C1.37555 6.19712 1.48911 6.97311 1.75704 7.70133C2.02132 8.4247 2.45063 9.10828 3.03509 9.72919L6.78681 13.7252C6.81769 13.7582 6.855 13.7846 6.89644 13.8028C6.93789 13.821 6.9826 13.8305 7.02785 13.8308C7.07324 13.8313 7.11821 13.8221 7.15978 13.8039C7.20136 13.7857 7.2386 13.7588 7.26903 13.7252L11.0205 9.72919C11.605 9.10828 12.0343 8.4247 12.2986 7.70133C12.5698 6.97395 12.6835 6.19726 12.6322 5.42265C12.5384 4.00872 11.9367 2.67634 10.9379 1.67112ZM11.6744 7.47351C11.4399 8.11412 11.0569 8.72193 10.535 9.27664L7.02785 13.0151L3.51731 9.27661C2.99554 8.72193 2.61249 8.11412 2.37793 7.47348C2.1397 6.83235 2.03958 6.14813 2.08411 5.46562C2.16578 4.21075 2.69963 3.02804 3.58671 2.13671C4.49895 1.22341 5.73692 0.710017 7.02788 0.710017C8.31883 0.710017 9.55672 1.22341 10.4691 2.13668C11.3561 3.02801 11.89 4.21072 11.9716 5.46559C12.0136 6.1483 11.9124 6.83223 11.6744 7.47351H11.6744Z" fill="#2B2B2B"/>
<path d="M7.02784 2.74448C5.60781 2.74448 4.4519 3.92656 4.4519 5.37968C4.4519 6.83276 5.60781 8.01511 7.02784 8.01511C8.44789 8.01511 9.60377 6.83276 9.60377 5.37968C9.60377 3.92658 8.44789 2.74448 7.02784 2.74448ZM7.02784 7.35461C5.97102 7.35461 5.11237 6.46955 5.11237 5.37968C5.11237 4.28988 5.97102 3.40492 7.02786 3.40492C8.08467 3.40492 8.94333 4.2899 8.94333 5.37968C8.94333 6.46955 8.08467 7.35464 7.02784 7.35464V7.35461Z" fill="#2B2B2B"/>
</svg>
