<svg width="20" height="20" viewBox="0 0 20 20" fill="none" xmlns="http://www.w3.org/2000/svg">
<g clip-path="url(#clip0_418_129)">
<path d="M14.6439 20.0139C13.5845 20.0139 12.5489 19.6997 11.6681 19.1112C10.7872 18.5226 10.1007 17.6861 9.69532 16.7074C9.28992 15.7286 9.18385 14.6517 9.39052 13.6127C9.59719 12.5736 10.1073 11.6192 10.8564 10.8702C11.6055 10.1211 12.5599 9.61094 13.5989 9.40427C14.6379 9.19759 15.7149 9.30367 16.6936 9.70907C17.6723 10.1145 18.5089 10.801 19.0974 11.6818C19.686 12.5627 20.0001 13.5982 20.0001 14.6576C19.9984 16.0776 19.4335 17.439 18.4294 18.4432C17.4253 19.4473 16.0639 20.0121 14.6439 20.0139ZM14.6439 10.6986C13.8609 10.6986 13.0954 10.9308 12.4444 11.3658C11.7933 11.8009 11.2859 12.4192 10.9862 13.1426C10.6866 13.866 10.6082 14.662 10.761 15.43C10.9137 16.1979 11.2908 16.9034 11.8444 17.457C12.3981 18.0107 13.1035 18.3878 13.8715 18.5405C14.6395 18.6933 15.4355 18.6149 16.1589 18.3152C16.8823 18.0156 17.5006 17.5081 17.9356 16.8571C18.3706 16.206 18.6028 15.4406 18.6028 14.6576C18.6016 13.608 18.1841 12.6017 17.4419 11.8596C16.6997 11.1174 15.6935 10.6999 14.6439 10.6986Z" fill="black"/>
<path d="M14.1781 16.2878C14.0863 16.288 13.9954 16.27 13.9107 16.2348C13.8259 16.1996 13.749 16.148 13.6844 16.0828L12.7528 15.1513C12.6842 15.0874 12.6291 15.0102 12.5909 14.9245C12.5528 14.8388 12.5322 14.7463 12.5306 14.6525C12.5289 14.5587 12.5462 14.4655 12.5813 14.3785C12.6165 14.2915 12.6688 14.2125 12.7351 14.1462C12.8014 14.0798 12.8805 14.0275 12.9675 13.9924C13.0544 13.9572 13.1476 13.94 13.2414 13.9416C13.3352 13.9433 13.4278 13.9638 13.5135 14.002C13.5992 14.0402 13.6763 14.0953 13.7402 14.1639L14.1781 14.6008L15.5474 13.2324C15.6114 13.1637 15.6885 13.1087 15.7742 13.0705C15.8599 13.0323 15.9524 13.0118 16.0462 13.0101C16.14 13.0085 16.2332 13.0257 16.3202 13.0609C16.4072 13.096 16.4862 13.1483 16.5526 13.2146C16.6189 13.281 16.6712 13.36 16.7063 13.447C16.7415 13.534 16.7587 13.6272 16.7571 13.721C16.7554 13.8148 16.7349 13.9073 16.6967 13.993C16.6585 14.0787 16.6035 14.1558 16.5348 14.2198L14.6718 16.0828C14.6071 16.148 14.5302 16.1996 14.4455 16.2348C14.3607 16.27 14.2698 16.288 14.1781 16.2878ZM8.58892 8.83558C7.66284 8.83435 6.77504 8.46592 6.1202 7.81108C5.46537 7.15624 5.09694 6.26844 5.0957 5.34236V4.41084C5.0957 4.22555 5.16931 4.04785 5.30033 3.91682C5.43135 3.7858 5.60905 3.7122 5.79435 3.7122C5.97964 3.7122 6.15734 3.7858 6.28836 3.91682C6.41938 4.04785 6.49299 4.22555 6.49299 4.41084V5.34236C6.49299 5.89824 6.71381 6.43135 7.10687 6.82441C7.49994 7.21747 8.03304 7.43829 8.58892 7.43829C9.14479 7.43829 9.6779 7.21747 10.071 6.82441C10.464 6.43135 10.6848 5.89824 10.6848 5.34236V4.41084C10.6848 4.22555 10.7585 4.04785 10.8895 3.91682C11.0205 3.7858 11.1982 3.7122 11.3835 3.7122C11.5688 3.7122 11.7465 3.7858 11.8775 3.91682C12.0085 4.04785 12.0821 4.22555 12.0821 4.41084V5.34236C12.0809 6.26844 11.7125 7.15624 11.0576 7.81108C10.4028 8.46592 9.515 8.83435 8.58892 8.83558Z" fill="black"/>
<path d="M14.3828 20.0139H3.72619C3.24078 20.014 2.76066 19.913 2.31644 19.7173C1.87222 19.5216 1.47365 19.2355 1.14613 18.8773C0.818621 18.519 0.56935 18.0964 0.414213 17.6364C0.259076 17.1765 0.201477 16.6892 0.245088 16.2058L1.40018 3.16446C1.48491 2.29808 1.88756 1.4938 2.53043 0.906845C3.17329 0.31989 4.01079 -0.00812756 4.88128 -0.0138969H13.2277C14.0982 -0.00812756 14.9357 0.31989 15.5786 0.906845C16.2215 1.4938 16.6241 2.29808 16.7088 3.16446L17.3516 10.395C17.3659 10.5783 17.3073 10.76 17.1885 10.9004C17.0696 11.0409 16.9002 11.1288 16.717 11.1451C16.5338 11.1614 16.3515 11.1048 16.2098 10.9875C16.068 10.8703 15.9782 10.7019 15.9599 10.5188L15.3171 3.29301C15.2671 2.77251 15.0257 2.28908 14.6397 1.93632C14.2538 1.58355 13.7506 1.38652 13.2277 1.38339H4.88128C4.35845 1.38673 3.85543 1.58383 3.46949 1.93655C3.08355 2.28928 2.84212 2.77259 2.79187 3.29301L1.63678 16.3343C1.61091 16.6243 1.64571 16.9164 1.73898 17.1922C1.83225 17.4679 1.98194 17.7212 2.1785 17.936C2.37507 18.1507 2.61421 18.3221 2.88067 18.4393C3.14714 18.5564 3.4351 18.6168 3.72619 18.6166H14.3828C14.471 18.5954 14.5624 18.5922 14.6519 18.6069C14.7413 18.6217 14.8268 18.6542 14.9035 18.7026C14.9801 18.7509 15.0464 18.8141 15.0982 18.8885C15.15 18.9628 15.1865 19.0468 15.2054 19.1354C15.2443 19.319 15.21 19.5106 15.1098 19.6693C15.0095 19.828 14.8513 19.9412 14.6688 19.985C14.575 20.0063 14.479 20.016 14.3828 20.0139Z" fill="black"/>
</g>
<defs>
<clipPath id="clip0_418_129">
<rect width="20" height="20" fill="white"/>
</clipPath>
</defs>
</svg>
