<svg width="24" height="24" viewBox="0 0 24 24" fill="none" xmlns="http://www.w3.org/2000/svg">
<path d="M18.1575 9.75H18V6.75C18 5.1587 17.3679 3.63258 16.2426 2.50736C15.1174 1.38214 13.5913 0.75 12 0.75C10.4087 0.75 8.88258 1.38214 7.75736 2.50736C6.63214 3.63258 6 5.1587 6 6.75V9.75H5.8425C5.28753 9.75 4.7553 9.97046 4.36288 10.3629C3.97046 10.7553 3.75 11.2875 3.75 11.8425V21.1575C3.75 21.7125 3.97046 22.2447 4.36288 22.6371C4.7553 23.0295 5.28753 23.25 5.8425 23.25H18.1575C18.7125 23.25 19.2447 23.0295 19.6371 22.6371C20.0295 22.2447 20.25 21.7125 20.25 21.1575V11.8425C20.25 11.2875 20.0295 10.7553 19.6371 10.3629C19.2447 9.97046 18.7125 9.75 18.1575 9.75ZM7.5 6.75C7.5 5.55653 7.97411 4.41193 8.81802 3.56802C9.66193 2.72411 10.8065 2.25 12 2.25C13.1935 2.25 14.3381 2.72411 15.182 3.56802C16.0259 4.41193 16.5 5.55653 16.5 6.75V9.75H7.5V6.75ZM18.75 21.1575C18.75 21.3146 18.6876 21.4653 18.5765 21.5765C18.4653 21.6876 18.3146 21.75 18.1575 21.75H5.8425C5.68536 21.75 5.53465 21.6876 5.42354 21.5765C5.31242 21.4653 5.25 21.3146 5.25 21.1575V11.8425C5.25 11.6854 5.31242 11.5347 5.42354 11.4235C5.53465 11.3124 5.68536 11.25 5.8425 11.25H18.1575C18.3146 11.25 18.4653 11.3124 18.5765 11.4235C18.6876 11.5347 18.75 11.6854 18.75 11.8425V21.1575Z" fill="#B1B1B1"/>
</svg>
