<svg width="20" height="20" viewBox="0 0 20 20" fill="none" xmlns="http://www.w3.org/2000/svg">
<path d="M11.875 9.6875H8.125C7.77982 9.6875 7.5 9.96732 7.5 10.3125V19.375C7.5 19.7202 7.77982 20 8.125 20H11.875C12.2202 20 12.5 19.7202 12.5 19.375V10.3125C12.5 9.96732 12.2202 9.6875 11.875 9.6875Z" fill="#75D3FF"/>
<path d="M5.3125 11.5625H1.5625C1.21732 11.5625 0.9375 11.8423 0.9375 12.1875V19.375C0.9375 19.7202 1.21732 20 1.5625 20H5.3125C5.65768 20 5.9375 19.7202 5.9375 19.375V12.1875C5.9375 11.8423 5.65768 11.5625 5.3125 11.5625Z" fill="#A8E4FF"/>
<path d="M18.4375 7.1875H14.6875C14.3423 7.1875 14.0625 7.46732 14.0625 7.8125V19.375C14.0625 19.7202 14.3423 20 14.6875 20H18.4375C18.7827 20 19.0625 19.7202 19.0625 19.375V7.8125C19.0625 7.46732 18.7827 7.1875 18.4375 7.1875Z" fill="url(#paint0_linear_27_62)"/>
<path d="M0 18.75H20V20H0V18.75Z" fill="#595D84"/>
<path d="M18.7469 3.68781L18.4344 0.562811C18.418 0.398839 18.3375 0.247975 18.2104 0.143048C18.0834 0.0381202 17.92 -0.0123797 17.7559 0.00253707L14.3184 0.315037L14.4317 1.55996L16.3735 1.3834C15.3701 2.56429 13.6378 4.12992 11.2844 5.51621C9.02188 6.84887 5.44441 8.4375 1.25 8.4375V9.6875C5.72609 9.6875 9.5223 8.0048 11.9188 6.5932C14.4114 5.125 16.2422 3.47742 17.3398 2.17812L17.5033 3.81219L18.7469 3.68781Z" fill="#F0B960"/>
<defs>
<linearGradient id="paint0_linear_27_62" x1="12.2924" y1="17.8638" x2="20.8326" y2="9.32367" gradientUnits="userSpaceOnUse">
<stop stop-color="#42C3FF"/>
<stop offset="1" stop-color="#42C3FF"/>
</linearGradient>
</defs>
</svg>
