<svg width="24" height="24" viewBox="0 0 24 24" fill="none" xmlns="http://www.w3.org/2000/svg">
<path d="M0.929743 22C0.929743 22.2652 1.0351 22.5196 1.22264 22.7071C1.41017 22.8946 1.66453 23 1.92974 23C2.19496 23 2.44931 22.8946 2.63685 22.7071C2.82439 22.5196 2.92974 22.2652 2.92974 22C2.92974 18.471 4.96074 15.347 8.12774 13.87C9.26022 14.6096 10.5838 15.0028 11.9364 15.0014C13.289 14.9999 14.6118 14.604 15.7427 13.862C16.688 14.3035 17.5505 14.9039 18.2927 15.637C19.1311 16.4706 19.7958 17.4622 20.2485 18.5544C20.7011 19.6466 20.9327 20.8177 20.9297 22C20.9297 22.2652 21.0351 22.5196 21.2226 22.7071C21.4102 22.8946 21.6645 23 21.9297 23C22.195 23 22.4493 22.8946 22.6369 22.7071C22.8244 22.5196 22.9297 22.2652 22.9297 22C22.9297 19.063 21.7847 16.302 19.7067 14.223C19.0003 13.5247 18.2032 12.9247 17.3367 12.439C18.3669 11.1892 18.9295 9.61962 18.9277 8C18.9277 4.14 15.7877 1 11.9277 1C8.06774 1 4.92774 4.14 4.92774 8C4.92774 9.68 5.52274 11.222 6.51274 12.43C4.81407 13.3833 3.40089 14.773 2.41934 16.4555C1.4378 18.138 0.923541 20.0521 0.929743 22ZM11.9287 3C14.6857 3 16.9287 5.243 16.9287 8C16.9287 10.757 14.6857 13 11.9287 13C9.17174 13 6.92874 10.757 6.92874 8C6.92874 5.243 9.17174 3 11.9287 3Z" fill="#B1B1B1"/>
</svg>
