<svg width="24" height="24" viewBox="0 0 24 24" fill="none" xmlns="http://www.w3.org/2000/svg">
<g clip-path="url(#clip0_63_80)">
<path d="M4.89005 15.9536C7.25723 18.7833 10.1068 21.0112 13.3592 22.5877C14.5975 23.1745 16.2535 23.8707 18.0985 23.9901C18.2129 23.995 18.3223 24 18.4367 24C19.675 24 20.6696 23.5723 21.4802 22.6921C21.4852 22.6871 21.4951 22.6772 21.5001 22.6672C21.7885 22.3191 22.1167 22.0058 22.4599 21.6726C22.6936 21.4488 22.9323 21.2151 23.1611 20.9764C24.2203 19.8724 24.2203 18.47 23.1511 17.4008L20.1623 14.4119C19.6551 13.8848 19.0484 13.6063 18.4118 13.6063C17.7753 13.6063 17.1636 13.8848 16.6414 14.407L14.861 16.1873C14.6969 16.0928 14.5278 16.0083 14.3687 15.9287C14.1698 15.8293 13.9858 15.7348 13.8217 15.6303C12.2004 14.6009 10.7284 13.2582 9.32105 11.5325C8.6099 10.6324 8.13248 9.87651 7.79929 9.10569C8.26676 8.68297 8.70439 8.24037 9.1271 7.80772C9.27629 7.65355 9.43045 7.49939 9.58462 7.34522C10.1217 6.80813 10.4101 6.1865 10.4101 5.55492C10.4101 4.92334 10.1267 4.30171 9.58462 3.76462L8.10265 2.28264C7.92859 2.10859 7.76448 1.9395 7.59539 1.76544C7.26717 1.42728 6.92403 1.07916 6.58586 0.765859C6.07364 0.26358 5.4719 7.62939e-06 4.83534 7.62939e-06C4.20376 7.62939e-06 3.59705 0.26358 3.06493 0.770832L1.20501 2.63076C0.528671 3.30709 0.145745 4.12765 0.0661763 5.0775C-0.0283119 6.26607 0.190503 7.52922 0.757432 9.05595C1.62772 11.4182 2.94061 13.6113 4.89005 15.9536ZM1.2796 5.18194C1.33928 4.52052 1.59291 3.96851 2.07032 3.4911L3.9203 1.64112C4.20874 1.36263 4.52701 1.21841 4.83534 1.21841C5.1387 1.21841 5.44703 1.36263 5.73049 1.65106C6.06369 1.95939 6.37699 2.28264 6.71516 2.62578C6.88425 2.79984 7.0583 2.9739 7.23236 3.15293L8.71433 4.6349C9.02266 4.94323 9.1818 5.25653 9.1818 5.56486C9.1818 5.87319 9.02266 6.1865 8.71433 6.49483C8.56017 6.64899 8.406 6.80813 8.25184 6.9623C7.78934 7.42976 7.35669 7.87237 6.87927 8.29508L6.85441 8.31994C6.44164 8.73271 6.50629 9.12558 6.60575 9.42396C6.61073 9.43888 6.6157 9.44883 6.62067 9.46375C7.0036 10.3838 7.53572 11.259 8.36622 12.3034C9.85814 14.1434 11.4296 15.5707 13.1603 16.6697C13.3741 16.809 13.6029 16.9184 13.8167 17.0278C14.0156 17.1272 14.1996 17.2217 14.3637 17.3262C14.3836 17.3361 14.3985 17.3461 14.4184 17.356C14.5825 17.4405 14.7417 17.4803 14.9008 17.4803C15.2987 17.4803 15.5573 17.2267 15.6418 17.1422L17.5017 15.2822C17.7902 14.9938 18.1035 14.8396 18.4118 14.8396C18.7898 14.8396 19.0981 15.0734 19.292 15.2822L22.2908 18.276C22.8876 18.8728 22.8826 19.5193 22.2759 20.1509C22.067 20.3746 21.8482 20.5885 21.6145 20.8123C21.2663 21.1504 20.9033 21.4986 20.5751 21.8914C20.0032 22.5081 19.3219 22.7965 18.4416 22.7965C18.3571 22.7965 18.2676 22.7916 18.183 22.7866C16.5519 22.6821 15.0351 22.0456 13.8963 21.5035C10.803 20.0066 8.08773 17.8831 5.83493 15.1877C3.97998 12.9548 2.73174 10.8761 1.90621 8.64816C1.39398 7.28057 1.20003 6.18152 1.2796 5.18194Z" fill="#B1B1B1"/>
</g>
<defs>
<clipPath id="clip0_63_80">
<rect width="24" height="24" fill="white"/>
</clipPath>
</defs>
</svg>
