<svg width="20" height="20" viewBox="0 0 20 20" fill="none" xmlns="http://www.w3.org/2000/svg">
<g clip-path="url(#clip0_27_27)">
<path d="M15.4288 1.75766H2.14832C0.963711 1.75766 0 2.72141 0 3.90594V16.6005C0 17.785 0.96375 18.7488 2.14828 18.7488H15.4094C16.5923 18.7488 17.556 17.7866 17.5577 16.6037L17.5771 3.90594C17.5771 2.72141 16.6133 1.75766 15.4288 1.75766Z" fill="#F2F2FC"/>
<path d="M17.5771 3.90594C17.5761 4.49602 17.5586 16.1247 17.5578 16.6036C17.5559 17.7864 16.5923 18.7488 15.4095 18.7488H8.78845V1.75766H15.4288C16.6135 1.75766 17.5771 2.72125 17.5771 3.90594Z" fill="#D8D8FB"/>
<path d="M17.5771 3.90594L17.5731 6.48391H0V3.90594C0 2.72125 0.963594 1.75766 2.14828 1.75766H15.4288C16.6135 1.75766 17.5771 2.72125 17.5771 3.90594Z" fill="#5CCBFF"/>
<path d="M17.5771 3.90594L17.5731 6.48391H8.78845V1.75766H15.4288C16.6135 1.75766 17.5771 2.72125 17.5771 3.90594Z" fill="#42C3FF"/>
<path d="M3.51544 0C3.19181 0 2.9295 0.262305 2.9295 0.585938V4.10125C2.9295 4.42488 3.19181 4.68719 3.51544 4.68719C3.83892 4.68719 4.10122 4.42488 4.10122 4.10125V0.585938C4.10122 0.262305 3.83892 0 3.51544 0ZM7.03075 0.0390625C6.70728 0.0390625 6.44482 0.301367 6.44482 0.625V4.10125C6.44482 4.42488 6.70728 4.68719 7.03075 4.68719C7.35439 4.68719 7.61669 4.42488 7.61669 4.10125V0.625C7.61669 0.301367 7.35439 0.0390625 7.03075 0.0390625Z" fill="#48568B"/>
<path d="M10.5463 0.0390625C10.2226 0.0390625 9.96033 0.301367 9.96033 0.625V4.10125C9.96033 4.42488 10.2226 4.68719 10.5463 4.68719C10.8698 4.68719 11.132 4.42488 11.132 4.10125V0.625C11.132 0.301367 10.8698 0.0390625 10.5463 0.0390625ZM14.0616 0.0390625C13.7381 0.0390625 13.4757 0.301367 13.4757 0.625V4.10125C13.4757 4.42488 13.7381 4.68719 14.0616 4.68719C14.3852 4.68719 14.6476 4.42488 14.6476 4.10125V0.625C14.6476 0.301367 14.3852 0.0390625 14.0616 0.0390625Z" fill="#2D3B72"/>
<path d="M5.2731 8.24173H2.9295C2.60587 8.24173 2.34357 8.50403 2.34357 8.82751V11.1711C2.34357 11.4948 2.60587 11.757 2.9295 11.757H5.2731C5.59657 11.757 5.85904 11.4948 5.85904 11.1711V8.82751C5.85904 8.50407 5.59657 8.24173 5.2731 8.24173ZM9.96029 8.24173H7.61669C7.29306 8.24173 7.03075 8.50403 7.03075 8.82751V11.1711C7.03075 11.4948 7.29306 11.757 7.61669 11.757H9.96029C10.2838 11.757 10.5462 11.4948 10.5462 11.1711V8.82751C10.5462 8.50407 10.2838 8.24173 9.96029 8.24173Z" fill="#D8D8FB"/>
<path d="M10.5463 8.82751V11.1711C10.5463 11.4946 10.2837 11.757 9.96033 11.757H8.78845V8.24173H9.96033C10.2837 8.24173 10.5463 8.50419 10.5463 8.82751ZM14.6476 8.24173H12.3039C11.9803 8.24173 11.718 8.50403 11.718 8.82751V11.1711C11.718 11.4948 11.9803 11.757 12.3039 11.757H14.6476C14.971 11.757 15.2335 11.4948 15.2335 11.1711V8.82751C15.2335 8.50407 14.971 8.24173 14.6476 8.24173Z" fill="#A3A3CF"/>
<path d="M5.2731 12.9289H2.9295C2.60587 12.9289 2.34357 13.1912 2.34357 13.5147V15.8583C2.34357 16.1819 2.60587 16.4442 2.9295 16.4442H5.2731C5.59657 16.4442 5.85904 16.1819 5.85904 15.8583V13.5147C5.85904 13.1912 5.59657 12.9289 5.2731 12.9289ZM9.96029 12.9289H7.61669C7.29306 12.9289 7.03075 13.1912 7.03075 13.5147V15.8583C7.03075 16.1819 7.29306 16.4442 7.61669 16.4442H9.96029C10.2838 16.4442 10.5462 16.1819 10.5462 15.8583V13.5147C10.5462 13.1912 10.2838 12.9289 9.96029 12.9289Z" fill="#D8D8FB"/>
<path d="M10.5463 13.5147V15.8583C10.5463 16.1817 10.2837 16.4442 9.96033 16.4442H8.78845V12.9289H9.96033C10.2837 12.9289 10.5463 13.1914 10.5463 13.5147Z" fill="#A3A3CF"/>
<path d="M15.8974 11.7961C13.636 11.7961 11.7961 13.636 11.7961 15.8974C11.7961 18.1589 13.636 19.9988 15.8974 19.9988C18.1589 19.9988 19.9988 18.1589 19.9988 15.8974C19.9988 13.636 18.1589 11.7961 15.8974 11.7961Z" fill="#FFBB6D"/>
<path d="M19.9988 15.8974C19.9988 18.2692 17.991 20.063 15.8583 19.9983V11.7966C17.9854 11.732 19.9988 13.52 19.9988 15.8973V15.8974Z" fill="#CDA16F"/>
<path d="M15.8974 18.8269C14.2821 18.8269 12.968 17.5126 12.968 15.8974C12.968 14.2821 14.2821 12.968 15.8974 12.968C17.5128 12.968 18.8269 14.2821 18.8269 15.8974C18.8269 17.5126 17.5128 18.8269 15.8974 18.8269Z" fill="#F2F2FC"/>
<path d="M18.8269 15.8974C18.8269 17.5792 17.4094 18.8736 15.8583 18.8264V12.9683C17.399 12.9216 18.8269 14.2058 18.8269 15.8974Z" fill="#D8D8FB"/>
<path d="M16.9911 15.3116H16.4442V14.6866C16.4442 14.3629 16.1819 14.1007 15.8583 14.1007C15.5348 14.1007 15.2725 14.3629 15.2725 14.6866V15.8974C15.2725 16.221 15.5348 16.4833 15.8583 16.4833H16.9911C17.3146 16.4833 17.5771 16.221 17.5771 15.8974C17.5771 15.5739 17.3146 15.3116 16.9911 15.3116Z" fill="#48568B"/>
<path d="M17.5771 15.8974C17.5771 16.2208 17.3145 16.4833 16.9911 16.4833H15.8583V14.1007C16.1818 14.1007 16.4443 14.3631 16.4443 14.6866V15.3116H16.9911C17.3145 15.3116 17.5771 15.574 17.5771 15.8974Z" fill="#2D3B72"/>
</g>
<defs>
<clipPath id="clip0_27_27">
<rect width="20" height="20" fill="white"/>
</clipPath>
</defs>
</svg>
