<svg width="24" height="24" viewBox="0 0 24 24" fill="none" xmlns="http://www.w3.org/2000/svg">
<path fill-rule="evenodd" clip-rule="evenodd" d="M4.3999 7.428C3.80276 7.42814 3.21926 7.60654 2.72413 7.94035C2.229 8.27415 1.8448 8.74817 1.62073 9.30168C1.39666 9.85519 1.34294 10.463 1.46643 11.0472C1.58992 11.6315 1.88501 12.1655 2.3139 12.581C1.72909 12.9376 1.24586 13.4387 0.910658 14.0361C0.575461 14.6335 0.399573 15.307 0.399903 15.992V16.198C0.399903 16.791 0.879903 17.271 1.4739 17.271H5.7499L5.7489 17.371V17.585C5.7489 18.295 6.3249 18.87 7.0349 18.87H16.9629C17.6729 18.87 18.2489 18.295 18.2489 17.585V17.271H22.5249C23.1179 17.271 23.5989 16.791 23.5989 16.198V15.995C23.5989 14.55 22.8319 13.285 21.6829 12.582C22.1116 12.1667 22.4066 11.6329 22.5302 11.049C22.6538 10.465 22.6003 9.85745 22.3766 9.30407C22.1529 8.75068 21.7692 8.27664 21.2745 7.9426C20.7799 7.60857 20.1968 7.42974 19.5999 7.429C19.0031 7.42955 18.4199 7.60816 17.9252 7.942C17.4304 8.27583 17.0466 8.7497 16.8227 9.30295C16.5987 9.85621 16.545 10.4637 16.6683 11.0477C16.7917 11.6316 17.0864 12.1655 17.5149 12.581C17.2129 12.766 16.9369 12.991 16.6949 13.247C16.0941 12.5645 15.3519 12.0209 14.5199 11.654C15.08 11.1452 15.4731 10.4788 15.6474 9.74236C15.8216 9.00597 15.769 8.23407 15.4963 7.52816C15.2236 6.82226 14.7437 6.21539 14.1197 5.78736C13.4956 5.35933 12.7566 5.13016 11.9999 5.13C11.2433 5.13037 10.5044 5.35967 9.88052 5.78778C9.25663 6.21589 8.77688 6.82277 8.50434 7.52863C8.23179 8.23449 8.17922 9.00631 8.35352 9.74261C8.52781 10.4789 8.92083 11.1452 9.4809 11.654C8.64894 12.021 7.90677 12.5645 7.3059 13.247C7.06268 12.9902 6.78663 12.7666 6.4849 12.582C6.91373 12.1666 7.2088 11.6326 7.33233 11.0485C7.45585 10.4643 7.40221 9.85661 7.17826 9.30314C6.95432 8.74968 6.57027 8.27565 6.0753 7.94177C5.58033 7.60788 4.99696 7.42834 4.3999 7.428ZM4.3999 11.925C4.60008 11.9302 4.79926 11.8952 4.98571 11.8222C5.17216 11.7491 5.3421 11.6395 5.48551 11.4998C5.62892 11.36 5.74289 11.193 5.82072 11.0085C5.89854 10.824 5.93863 10.6257 5.93863 10.4255C5.93863 10.2253 5.89854 10.027 5.82072 9.84255C5.74289 9.65804 5.62892 9.49099 5.48551 9.35124C5.3421 9.21149 5.17216 9.10186 4.98571 9.02883C4.79926 8.9558 4.60008 8.92083 4.3999 8.926C4.00208 8.926 3.62055 9.08404 3.33924 9.36535C3.05794 9.64665 2.8999 10.0282 2.8999 10.426C2.8999 10.8238 3.05794 11.2054 3.33924 11.4867C3.62055 11.768 4.00208 11.925 4.3999 11.925ZM4.3989 13.495C3.77434 13.4946 3.17227 13.7281 2.71136 14.1496C2.25046 14.571 1.96416 15.1499 1.9089 15.772H5.9569C6.0709 15.34 6.2299 14.926 6.4299 14.535C6.19825 14.2129 5.89321 13.9505 5.54003 13.7697C5.18686 13.5888 4.79569 13.4947 4.3989 13.495ZM19.5989 11.925C19.7991 11.9303 19.9983 11.8955 20.1848 11.8226C20.3713 11.7497 20.5413 11.6401 20.6848 11.5005C20.8283 11.3608 20.9424 11.1939 21.0203 11.0094C21.0983 10.825 21.1385 10.6268 21.1386 10.4265C21.1388 10.2263 21.0988 10.028 21.0211 9.8435C20.9434 9.65894 20.8295 9.49182 20.6862 9.35197C20.5429 9.21212 20.373 9.10238 20.1866 9.02922C20.0002 8.95607 19.8011 8.92097 19.6009 8.926C19.2031 8.92587 18.8215 9.08378 18.5401 9.36499C18.2587 9.6462 18.1005 10.0277 18.1004 10.4255C18.1003 10.8233 18.2582 11.2049 18.5394 11.4863C18.8206 11.7677 19.2021 11.9259 19.5999 11.926L19.5989 11.925ZM22.0899 15.772C22.044 15.2643 21.8441 14.7827 21.5169 14.3918C21.1897 14.0009 20.7509 13.7193 20.2592 13.5848C19.7675 13.4502 19.2465 13.4691 18.7658 13.6389C18.2852 13.8088 17.8679 14.1214 17.5699 14.535C17.7699 14.925 17.9289 15.34 18.0429 15.772H22.0899ZM11.9999 11.126C12.2993 11.1324 12.597 11.0791 12.8755 10.969C13.154 10.8589 13.4077 10.6943 13.6217 10.4849C13.8358 10.2755 14.0059 10.0254 14.1221 9.74943C14.2383 9.47342 14.2982 9.17699 14.2983 8.87753C14.2985 8.57806 14.2388 8.28158 14.1229 8.00547C14.0069 7.72935 13.8371 7.47916 13.6232 7.26956C13.4093 7.05995 13.1557 6.89515 12.8773 6.78481C12.5989 6.67448 12.3013 6.62083 12.0019 6.627C11.4135 6.63915 10.8533 6.88135 10.4414 7.30168C10.0294 7.72201 9.79859 8.287 9.79832 8.87553C9.79806 9.46405 10.0284 10.0293 10.44 10.4499C10.8515 10.8706 11.4115 11.1133 11.9999 11.126ZM8.1479 14.594C7.56277 15.4016 7.24841 16.3737 7.2499 17.371H16.7499L16.7489 17.271C16.7232 16.0289 16.2115 14.8464 15.3235 13.9776C14.4356 13.1087 13.2423 12.6227 11.9999 12.624C10.4139 12.624 9.0099 13.401 8.1479 14.594Z" fill="black"/>
</svg>
