<svg width="24" height="24" viewBox="0 0 24 24" fill="none" xmlns="http://www.w3.org/2000/svg">
<path d="M22.6 4.26563V3H6.0625C5.04831 3 4.09479 3.39496 3.37769 4.11206C2.66054 4.82921 2.26563 5.78269 2.26563 6.79688C2.26563 7.7404 2.60785 8.6311 3.2329 9.32813H2.89844C1.85164 9.32813 1 10.1798 1 11.2266V13.7578C1 14.2437 1.18368 14.6873 1.48495 15.0234C1.18368 15.3596 1 15.8032 1 16.2891V18.8203C1 19.8671 1.85164 20.7188 2.89844 20.7188H20.7016C21.7484 20.7188 22.6 19.8671 22.6 18.8203V16.2891C22.6 15.8032 22.4163 15.3596 22.1151 15.0234C22.4164 14.6873 22.6 14.2437 22.6 13.7578V11.2266C22.6001 11.011 22.5633 10.7969 22.4912 10.5938H22.6V9.32813H20.9768C19.7097 7.88388 19.7097 5.70987 20.9768 4.26563H22.6ZM20.0688 10.5938H20.7016C21.0505 10.5938 21.3344 10.8776 21.3344 11.2266V13.7578C21.3344 14.1067 21.0505 14.3906 20.7016 14.3906H20.0688V10.5938ZM20.0688 15.6563H20.7016C21.0505 15.6563 21.3344 15.9401 21.3344 16.2891V18.8203C21.3344 19.1692 21.0505 19.4531 20.7016 19.4531H20.0688V15.6563ZM3.53125 19.4531H2.89844C2.5495 19.4531 2.26563 19.1692 2.26563 18.8203V16.2891C2.26563 15.9401 2.5495 15.6563 2.89844 15.6563H3.53125V19.4531ZM3.53125 14.3906H2.89844C2.5495 14.3906 2.26563 14.1067 2.26563 13.7578V11.2266C2.26563 10.8776 2.5495 10.5938 2.89844 10.5938H3.53125V14.3906ZM6.0625 19.4531H4.79688V15.6563H6.0625V19.4531ZM11.8 10.8486L15.0063 14.0022V10.5938H16.2719V14.3906H4.79688V10.5938H8.59375V14.0022L11.8 10.8486ZM9.85938 10.9821V6.79688H13.7406V10.9821L11.8 9.07331L9.85938 10.9821ZM18.8031 19.4531H7.32813V15.6563H18.8031V19.4531ZM18.8031 14.3906H17.5375V10.5938H18.8031V14.3906ZM19.4289 9.32813H15.0063V6.79688H17.5375V5.53125H6.0625V6.79688H8.59375V9.32813H6.0625C5.38636 9.32813 4.75072 9.06483 4.27261 8.58672C3.79454 8.10865 3.53125 7.47301 3.53125 6.79688C3.53125 6.12074 3.79454 5.4851 4.27261 5.00699C4.75072 4.52892 5.38636 4.26563 6.0625 4.26563H19.4289C18.5377 5.82855 18.5377 7.7652 19.4289 9.32813Z" fill="black"/>
</svg>
