<svg width="24" height="24" viewBox="0 0 24 24" fill="none" xmlns="http://www.w3.org/2000/svg">
<g clip-path="url(#clip0_415_50)">
<mask id="mask0_415_50" style="mask-type:luminance" maskUnits="userSpaceOnUse" x="0" y="-1" width="24" height="24">
<path d="M0 -1H24V23H0V-1Z" fill="white"/>
</mask>
<g mask="url(#mask0_415_50)">
<path fill-rule="evenodd" clip-rule="evenodd" d="M22.6918 5.7455C24.4356 6.51275 24.4356 8.939 22.6918 9.70625L18.7198 11.4538L20.1718 15.722C20.6496 17.1275 19.5823 18.5795 18.0711 18.5795H5.92856C4.41731 18.5795 3.35006 17.1275 3.82856 15.722L5.27906 11.4538L3.14231 10.5125V18.05C3.58331 18.3005 3.88031 18.7677 3.88031 19.3032C3.88031 20.1027 3.21956 20.7508 2.40431 20.7508C1.58906 20.7508 0.928312 20.1027 0.928312 19.3032C0.928312 18.7677 1.22456 18.3005 1.66631 18.0507V9.86375L1.30781 9.7055C-0.435937 8.93825 -0.435937 6.512 1.30781 5.74475L11.0931 1.43975C11.3789 1.31424 11.6876 1.24944 11.9998 1.24944C12.312 1.24944 12.6207 1.31424 12.9066 1.43975L22.6918 5.7455ZM22.0873 8.3855C22.2166 8.33025 22.3268 8.23825 22.4042 8.12092C22.4817 8.00359 22.523 7.86609 22.523 7.7255C22.523 7.58491 22.4817 7.44742 22.4042 7.33008C22.3268 7.21275 22.2166 7.12075 22.0873 7.0655L12.3021 2.7605C12.2068 2.71865 12.1039 2.69704 11.9998 2.69704C11.8958 2.69704 11.7928 2.71865 11.6976 2.7605L1.91231 7.0655C1.78303 7.12075 1.67283 7.21275 1.59538 7.33008C1.51792 7.44742 1.47664 7.58491 1.47664 7.7255C1.47664 7.86609 1.51792 8.00359 1.59538 8.12092C1.67283 8.23825 1.78303 8.33025 1.91231 8.3855L11.6976 12.6905C11.8896 12.776 12.1101 12.776 12.3021 12.6905L22.0873 8.3855ZM6.63281 12.05L5.22806 16.1803C5.06906 16.649 5.42456 17.1328 5.92856 17.1328H18.0711C18.5751 17.1328 18.9306 16.649 18.7716 16.1803L17.3661 12.05L12.9058 14.012C12.62 14.1375 12.3112 14.2023 11.9991 14.2023C11.6869 14.2023 11.3781 14.1375 11.0923 14.012L6.63281 12.05Z" fill="black"/>
</g>
</g>
<defs>
<clipPath id="clip0_415_50">
<rect width="24" height="24" fill="white"/>
</clipPath>
</defs>
</svg>
