<svg width="14" height="14" viewBox="0 0 14 14" fill="none" xmlns="http://www.w3.org/2000/svg">
<g clip-path="url(#clip0_42_1057)">
<path d="M7 0C3.13403 0 0 3.13403 0 7C0 10.866 3.13403 14 7 14C10.866 14 14 10.866 14 7C13.9961 3.13556 10.8644 0.0039375 7 0ZM7 13.3912C3.47025 13.3912 0.608781 10.5297 0.608781 7C0.608781 3.47025 3.47025 0.608781 7 0.608781C10.5297 0.608781 13.3912 3.47025 13.3912 7C13.3871 10.528 10.528 13.3871 7 13.3912ZM10.3469 7C10.3467 7.08065 10.3146 7.15794 10.2576 7.21497C10.2005 7.27199 10.1232 7.30411 10.0426 7.30428H7C6.91935 7.30411 6.84206 7.27199 6.78503 7.21497C6.72801 7.15794 6.69589 7.08065 6.69572 7V2.73919C6.69865 2.66048 6.73196 2.58597 6.78866 2.5313C6.84535 2.47664 6.92103 2.44606 6.99979 2.44601C7.07855 2.44595 7.15427 2.47641 7.21105 2.531C7.26782 2.58559 7.30124 2.66005 7.30428 2.73875V6.69572H10.0435C10.124 6.69612 10.201 6.72834 10.2579 6.78534C10.3147 6.84234 10.3467 6.9195 10.3469 7Z" fill="#2B2B2B"/>
</g>
<defs>
<clipPath id="clip0_42_1057">
<rect width="14" height="14" fill="white"/>
</clipPath>
</defs>
</svg>
